<svg width="54" height="55" viewBox="0 0 54 55" fill="none" xmlns="http://www.w3.org/2000/svg">
<path d="M27.2508 53.9077C41.7487 53.9077 53.5016 42.0844 53.5016 27.4997C53.5016 12.915 41.7487 1.0918 27.2508 1.0918C12.7529 1.0918 1 12.915 1 27.4997C1 42.0844 12.7529 53.9077 27.2508 53.9077Z" fill="white" stroke="black" stroke-miterlimit="10"/>
<path d="M37.7626 18.3964C35.9308 17.497 34.3422 17.397 32.2884 17.0175C32.251 17.0102 30.9391 16.9809 30.9198 17.0175C30.6672 17.4983 31.1157 17.9034 30.9198 18.3964C28.7108 18.0425 26.2407 18.0425 24.077 18.3964C23.881 17.8924 24.3308 17.4983 24.077 17.0175C24.0577 16.9821 22.7458 17.0114 22.7084 17.0175C20.6558 17.3958 19.0671 17.4958 17.2342 18.3964C17.2183 18.4037 17.2432 18.3805 17.2342 18.3964C13.5083 24.3525 12.6278 30.5833 13.1285 36.321C13.1081 36.3041 13.1307 36.349 13.1285 36.321C15.5867 38.2527 17.6343 39.6802 19.9713 40.4575C19.9475 40.4904 20.0087 40.4697 19.9713 40.4575C20.5241 39.6498 22.2859 38.5956 22.7084 37.6998C22.7334 37.6474 21.3908 37.7206 21.3399 37.6998C20.5582 37.3826 20.6873 36.7602 19.9713 36.321C19.9147 36.2856 19.9192 36.3625 19.9713 36.321C19.8274 36.4478 20.122 36.2002 19.9713 36.321C19.9407 36.3063 19.9973 36.2978 19.9713 36.321C24.6747 38.6187 30.3776 38.6187 35.0255 36.321C34.9983 36.2979 35.056 36.3052 35.0255 36.321C34.8737 36.2002 35.1694 36.448 35.0255 36.321C35.0777 36.3625 35.0822 36.2856 35.0255 36.321C34.3096 36.7687 34.4398 37.3838 33.657 37.6998C33.606 37.7206 32.2635 37.6474 32.2884 37.6998C32.72 38.5943 34.4829 39.6496 35.0255 40.4575C34.9882 40.4697 35.0482 40.4915 35.0255 40.4575C37.3738 39.6802 39.41 38.2527 41.8683 36.321C41.866 36.3492 41.8898 36.3041 41.8683 36.321C42.4675 29.6877 41.0082 23.5044 37.7626 18.3964C37.7785 18.4037 37.7547 18.3793 37.7626 18.3964ZM22.7084 33.5634C21.2924 33.5634 19.9713 31.1354 19.9713 29.4269C19.9713 27.7186 21.2697 26.6693 22.7084 26.6693C24.1584 26.6693 25.4681 27.7308 25.4456 29.4269C25.4456 31.1354 24.1471 33.5634 22.7084 33.5634ZM32.2884 33.5634C30.8723 33.5634 29.5513 31.1354 29.5513 29.4269C29.5513 27.7186 30.8498 26.6693 32.2884 26.6693C33.7384 26.6693 35.0481 27.7308 35.0255 29.4269C35.0255 31.1354 33.7384 33.5634 32.2884 33.5634Z" fill="black"/>
</svg>
