<svg width="52" height="52" viewBox="0 0 52 52" fill="none" xmlns="http://www.w3.org/2000/svg">
<path fill-rule="evenodd" clip-rule="evenodd" d="M26 -0.000488281C40.3595 -0.000488281 52 11.6401 52 25.9995C52 40.359 40.3595 51.9995 26 51.9995C11.6405 51.9995 0 40.359 0 25.9995C0 11.6401 11.6405 -0.000488281 26 -0.000488281ZM38.5141 14.2275L33.8755 37.6148C33.8755 37.6148 33.2268 39.2365 31.4428 38.4578L20.7709 30.0566C20.7709 30.0566 32.6431 19.3848 33.1295 18.9307C33.6161 18.4766 33.4538 18.3794 33.4538 18.3794C33.4861 17.8279 32.578 18.3794 32.578 18.3794L16.8461 28.3701L10.2938 26.1642C10.2938 26.1642 9.28822 25.8073 9.19103 25.029C9.09369 24.2503 10.3262 23.8288 10.3262 23.8288L36.3735 13.6111C36.3735 13.6111 38.5141 12.6704 38.5141 14.2275ZM24.8428 33.3981L20.6088 37.2583C20.6088 37.2583 20.2778 37.5093 19.9157 37.3521L20.7264 30.1815L24.8428 33.3981Z" fill="white"/>
</svg>
