<svg width="407" height="407" viewBox="0 0 407 407" fill="none" xmlns="http://www.w3.org/2000/svg">
<path d="M304.876 101.613C360.996 157.732 360.988 248.728 304.858 304.858C248.729 360.987 157.733 360.995 101.613 304.876C45.4939 248.757 45.5019 157.761 101.632 101.631C157.761 45.5016 248.757 45.4935 304.876 101.613Z" fill="white"/>
<path d="M305.583 100.906C362.093 157.416 362.085 249.045 305.565 305.565C249.045 362.085 157.416 362.093 100.906 305.583C44.3961 249.073 44.4044 157.444 100.925 100.924C157.444 44.4041 249.073 44.3958 305.583 100.906Z" stroke="black" stroke-width="2" stroke-miterlimit="10"/>
<path d="M81.9735 202.104C83.6948 202.104 84.4696 203.266 84.4694 205.346C84.4694 206.203 84.4138 207.159 84.3719 207.76C84.3483 208.098 84.0668 208.359 83.7278 208.359L83.6137 208.359C83.2356 208.359 82.9389 208.038 82.9701 207.661C83.0192 207.081 83.0775 206.241 83.0775 205.547C83.0777 204.199 82.6909 203.567 81.8011 203.568L81.3995 203.567C80.7542 203.567 80.3379 203.711 80.2229 204.715L80.0365 206.293C79.8928 207.556 78.946 208.402 77.669 208.403L76.8945 208.403C75.2302 208.402 74.4554 207.212 74.4556 205.218C74.4561 204.546 74.508 203.763 74.5587 203.168C74.5874 202.834 74.8666 202.579 75.202 202.578L75.2902 202.579C75.671 202.578 75.9689 202.905 75.9326 203.284C75.8803 203.832 75.8188 204.577 75.8188 205.046C75.8191 206.38 76.1628 206.939 77.0809 206.939L77.4685 206.939C78.0424 206.939 78.5302 206.753 78.6451 205.82L78.8458 204.17C78.9895 202.951 79.8215 202.104 81.0985 202.104L81.9735 202.104Z" fill="black"/>
<path d="M84.398 192.169L76.0501 191.183C75.696 191.141 75.4427 190.82 75.4851 190.466L75.5054 190.295C75.5473 189.941 75.868 189.688 76.2221 189.729L84.57 190.715C84.9242 190.758 85.177 191.078 85.1351 191.433L85.1147 191.604C85.0728 191.958 84.7517 192.211 84.398 192.169Z" fill="black"/>
<path d="M86.2615 180.57L78.082 178.637C77.735 178.555 77.5201 178.207 77.6023 177.86L77.6418 177.693C77.724 177.346 78.0718 177.131 78.4187 177.213L85.3141 178.842C85.6611 178.924 86.0088 178.71 86.091 178.363L86.7645 175.515C86.8463 175.168 87.194 174.953 87.541 175.035L87.5689 175.042C87.9159 175.124 88.1304 175.472 88.0486 175.818L87.0381 180.09C86.9563 180.437 86.6085 180.652 86.2615 180.57Z" fill="black"/>
<path d="M90.3078 166.216L82.4403 163.261C82.1069 163.136 81.9374 162.764 82.0631 162.43L82.1233 162.269C82.2489 161.936 82.6211 161.767 82.9545 161.892L89.5873 164.382C89.9207 164.508 90.2932 164.338 90.4185 164.005L91.4473 161.266C91.5725 160.932 91.9446 160.763 92.2784 160.889L92.3051 160.899C92.6393 161.024 92.808 161.396 92.6824 161.73L91.139 165.838C91.0137 166.172 90.6416 166.341 90.3078 166.216Z" fill="black"/>
<path d="M90.2861 144.198L90.3591 144.059C90.5864 143.625 91.195 143.592 91.4674 143.999L94.5594 148.619C94.6196 148.709 94.7009 148.782 94.7963 148.832L97.3705 150.179C97.6859 150.345 97.8079 150.735 97.6428 151.051L97.5626 151.203C97.3971 151.519 97.007 151.641 96.6912 151.476L94.1178 150.128C94.0221 150.078 93.916 150.053 93.8079 150.055L88.2492 150.144C87.7595 150.153 87.4393 149.634 87.6666 149.2L87.7396 149.061C87.8509 148.847 88.0727 148.714 88.3135 148.715L92.868 148.729L92.9346 148.601L90.3287 144.867C90.1903 144.669 90.174 144.411 90.2861 144.198Z" fill="black"/>
<path d="M109.178 126.746L106.747 121.592C106.639 121.362 106.675 121.09 106.84 120.897L107.109 120.582C107.341 120.311 107.748 120.28 108.019 120.511L114.406 125.97C114.677 126.202 114.709 126.609 114.477 126.88L114.366 127.011C114.134 127.281 113.727 127.313 113.456 127.082L108.987 123.262L108.95 123.306L110.685 127.125C110.788 127.353 110.75 127.621 110.588 127.812L110.357 128.081C110.194 128.272 109.936 128.351 109.694 128.284L105.651 127.165L105.614 127.209L110.083 131.028C110.354 131.259 110.386 131.667 110.154 131.938L110.042 132.069C109.811 132.34 109.403 132.372 109.132 132.14L102.745 126.681C102.475 126.45 102.443 126.042 102.674 125.771L102.943 125.457C103.108 125.264 103.371 125.185 103.615 125.256L109.085 126.855L109.178 126.746Z" fill="black"/>
<path d="M118.686 113.605L120.806 116.038C121.872 117.259 122.792 117.027 123.7 116.235C124.609 115.443 124.963 114.563 123.898 113.341L121.778 110.909C120.722 109.699 119.801 109.931 118.893 110.722C117.985 111.515 117.63 112.395 118.686 113.605ZM122.645 109.678L125.246 112.661C126.735 114.369 126.002 116.016 124.586 117.251C123.17 118.486 121.438 118.988 119.949 117.28L117.348 114.297C115.858 112.589 116.602 110.932 118.008 109.707C119.413 108.481 121.155 107.97 122.645 109.678Z" fill="black"/>
<path d="M139.703 105.511L134.283 102.923C133.696 102.643 133.11 103.308 133.461 103.855L135.854 107.58C136.047 107.88 135.96 108.279 135.66 108.472L135.515 108.565C135.215 108.757 134.816 108.671 134.623 108.37L130.082 101.301C129.889 101.001 129.976 100.601 130.276 100.409L130.649 100.169C130.838 100.048 131.075 100.033 131.276 100.129L136.719 102.723C137.305 103.003 137.891 102.338 137.54 101.792L135.137 98.0526C134.945 97.7527 135.032 97.3535 135.332 97.1604L135.476 97.0679C135.776 96.8752 136.175 96.9621 136.368 97.262L140.909 104.332C141.102 104.632 141.015 105.031 140.715 105.224L140.331 105.471C140.142 105.592 139.905 105.607 139.703 105.511Z" fill="black"/>
<path d="M154.517 95.5396C155.232 97.1049 154.498 98.2923 152.606 99.1575C151.827 99.5133 150.934 99.8603 150.371 100.072C150.053 100.191 149.7 100.043 149.559 99.7356L149.512 99.6319C149.355 99.2882 149.523 98.8841 149.879 98.7565C150.427 98.5598 151.214 98.2634 151.845 97.9754C153.071 97.4146 153.485 96.8004 153.115 95.9912L152.948 95.6263C152.68 95.0393 152.376 94.7207 151.416 95.0338L149.903 95.5201C148.696 95.9146 147.532 95.4055 147.002 94.245L146.68 93.5403C145.989 92.0276 146.75 90.8279 148.563 89.999C149.174 89.7198 149.908 89.4414 150.469 89.2399C150.785 89.127 151.133 89.2746 151.273 89.5801L151.31 89.6598C151.468 90.0064 151.294 90.4132 150.934 90.5376C150.414 90.7183 149.712 90.9717 149.285 91.1667C148.072 91.7212 147.707 92.2668 148.088 93.1015L148.249 93.454C148.488 93.9756 148.86 94.3413 149.756 94.0581L151.339 93.555C152.507 93.1788 153.622 93.5831 154.154 94.7444L154.517 95.5396Z" fill="black"/>
<path d="M165.276 85.9579L167.355 92.7455C167.459 93.0861 167.268 93.4474 166.926 93.5519L166.762 93.6022C166.422 93.7067 166.061 93.5149 165.956 93.1743L163.877 86.3863C163.772 86.0457 163.412 85.8539 163.071 85.9585L161.768 86.3578C161.427 86.4623 161.067 86.2705 160.962 85.9295L160.958 85.9164C160.853 85.5754 161.045 85.2144 161.386 85.1099L166.625 83.5046C166.965 83.4001 167.326 83.5919 167.431 83.9325L167.435 83.9464C167.539 84.287 167.348 84.648 167.007 84.7529L165.704 85.1514C165.363 85.2555 165.172 85.6169 165.276 85.9579Z" fill="black"/>
<path d="M178.74 89.9159L177.33 81.6295C177.27 81.2777 177.507 80.9447 177.858 80.8844L182.298 80.1279C182.65 80.068 182.983 80.3045 183.043 80.6563L183.046 80.6702C183.105 81.022 182.869 81.355 182.517 81.4148L179.52 81.9256C179.168 81.9854 178.932 82.3189 178.991 82.6702L179.263 84.2683C179.323 84.6196 179.657 84.8561 180.008 84.7966L182.341 84.3988C182.692 84.3389 183.026 84.5754 183.086 84.9268C183.146 85.2781 182.909 85.6119 182.558 85.6714L180.224 86.0692C179.873 86.1291 179.637 86.4625 179.696 86.8138L179.961 88.3696C180.021 88.7205 180.354 88.9574 180.706 88.8972L183.817 88.3673C184.168 88.3074 184.502 88.5439 184.562 88.8948L184.566 88.9231C184.626 89.2745 184.39 89.6083 184.038 89.6678L179.485 90.4439C179.133 90.5037 178.8 90.2677 178.74 89.9159Z" fill="black"/>
<path d="M198.637 81.2531C198.609 80.4511 198.252 80.0751 197.35 80.1062L195.745 80.1606C195.388 80.1726 195.109 80.4714 195.121 80.8279L195.179 82.5476C195.191 82.9041 195.49 83.1829 195.847 83.1709L197.451 83.1157C198.354 83.0853 198.685 82.6865 198.658 81.8836L198.637 81.2531ZM199.377 88.0776L197.558 84.772C197.44 84.559 197.213 84.4298 196.97 84.4382L195.891 84.4746C195.535 84.487 195.255 84.7857 195.267 85.1419L195.362 87.922C195.373 88.2785 195.094 88.5769 194.738 88.5893L194.567 88.5949C194.211 88.6073 193.911 88.3281 193.899 87.9716L193.615 79.5734C193.603 79.2172 193.882 78.9185 194.238 78.9065L197.218 78.8049C198.762 78.7525 200.056 79.9608 200.109 81.5046L200.131 82.1782C200.157 82.9196 199.843 83.5821 199.313 83.9869C199.07 84.1732 199.022 84.5218 199.17 84.789L200.647 87.4477C200.881 87.8697 200.587 88.3897 200.104 88.4065L199.965 88.4113C199.722 88.4197 199.494 88.2905 199.377 88.0776Z" fill="black"/>
<path d="M204.046 329.545C204.041 331.266 202.877 332.037 200.797 332.032C199.941 332.029 198.985 331.971 198.384 331.928C198.046 331.903 197.787 331.621 197.787 331.282L197.788 331.168C197.789 330.791 198.111 330.494 198.487 330.527C199.067 330.577 199.907 330.638 200.601 330.64C201.949 330.643 202.581 330.258 202.583 329.369L202.585 328.967C202.586 328.322 202.444 327.906 201.441 327.788L199.864 327.598C198.603 327.45 197.758 326.502 197.762 325.225L197.765 324.451C197.769 322.788 198.962 322.016 200.956 322.022C201.627 322.024 202.41 322.078 203.005 322.13C203.338 322.159 203.593 322.439 203.592 322.775L203.592 322.862C203.591 323.243 203.263 323.54 202.884 323.503C202.337 323.449 201.593 323.385 201.124 323.385C199.791 323.381 199.23 323.723 199.227 324.641L199.226 325.028C199.224 325.602 199.409 326.09 200.341 326.207L201.989 326.413C203.208 326.56 204.052 327.394 204.049 328.67L204.046 329.545Z" fill="black"/>
<path d="M215.588 330.405L214.584 322.06C214.541 321.706 214.794 321.385 215.147 321.342L215.318 321.321C215.672 321.279 215.994 321.531 216.036 321.885L217.041 330.23C217.084 330.584 216.831 330.906 216.477 330.948L216.306 330.969C215.952 331.011 215.631 330.759 215.588 330.405Z" fill="black"/>
<path d="M228.733 328.213L226.741 320.049C226.657 319.703 226.869 319.353 227.215 319.269L227.382 319.229C227.728 319.144 228.078 319.356 228.162 319.703L229.841 326.584C229.925 326.931 230.274 327.143 230.621 327.059L233.463 326.365C233.809 326.28 234.159 326.492 234.243 326.839L234.25 326.866C234.334 327.213 234.122 327.562 233.776 327.647L229.513 328.687C229.166 328.771 228.817 328.559 228.733 328.213Z" fill="black"/>
<path d="M244.737 323.505L241.681 315.674C241.552 315.342 241.716 314.967 242.048 314.838L242.208 314.775C242.54 314.646 242.914 314.81 243.044 315.142L245.62 321.743C245.75 322.075 246.124 322.239 246.456 322.109L249.182 321.045C249.515 320.915 249.889 321.079 250.019 321.411L250.029 321.439C250.159 321.771 249.994 322.145 249.662 322.275L245.573 323.871C245.241 324.001 244.867 323.837 244.737 323.505Z" fill="black"/>
<path d="M259.62 306.581L259.757 306.506C260.187 306.271 260.711 306.581 260.712 307.071L260.723 312.628C260.724 312.736 260.751 312.842 260.803 312.937L262.196 315.485C262.367 315.797 262.252 316.19 261.939 316.361L261.789 316.443C261.476 316.614 261.084 316.499 260.913 316.187L259.519 313.639C259.467 313.544 259.393 313.464 259.302 313.406L254.628 310.399C254.217 310.134 254.238 309.525 254.668 309.29L254.805 309.215C255.016 309.099 255.275 309.111 255.475 309.245L259.255 311.782L259.381 311.713L259.284 307.161C259.279 306.92 259.408 306.696 259.62 306.581Z" fill="black"/>
<path d="M283.224 296.198L281.476 290.774C281.398 290.532 281.469 290.267 281.657 290.097L281.965 289.819C282.229 289.58 282.638 289.601 282.876 289.865L288.509 296.1C288.748 296.365 288.726 296.773 288.462 297.012L288.335 297.127C288.07 297.366 287.662 297.345 287.423 297.081L283.483 292.718L283.44 292.757L284.669 296.768C284.743 297.007 284.67 297.268 284.485 297.436L284.222 297.673C284.035 297.841 283.769 297.886 283.538 297.789L279.673 296.159L279.63 296.198L283.571 300.56C283.81 300.825 283.789 301.233 283.525 301.472L283.397 301.588C283.133 301.827 282.724 301.806 282.485 301.542L276.853 295.307C276.614 295.042 276.635 294.634 276.899 294.395L277.207 294.117C277.395 293.947 277.666 293.903 277.899 294.005L283.118 296.294L283.224 296.198Z" fill="black"/>
<path d="M293.084 282.641L295.585 284.68C296.841 285.703 297.71 285.319 298.471 284.385C299.232 283.451 299.433 282.523 298.177 281.499L295.675 279.46C294.43 278.446 293.562 278.83 292.801 279.764C292.039 280.698 291.838 281.626 293.084 282.641ZM296.322 278.1L299.39 280.6C301.147 282.032 300.703 283.78 299.516 285.237C298.329 286.693 296.706 287.481 294.95 286.05L291.881 283.548C290.124 282.117 290.577 280.358 291.756 278.912C292.933 277.467 294.565 276.668 296.322 278.1Z" fill="black"/>
<path d="M311.175 267.376L305.169 267.518C304.52 267.534 304.297 268.391 304.858 268.72L308.676 270.961C308.983 271.141 309.086 271.537 308.905 271.844L308.819 271.993C308.638 272.3 308.243 272.403 307.936 272.223L300.689 267.969C300.382 267.789 300.28 267.394 300.46 267.086L300.684 266.703C300.797 266.511 301.002 266.39 301.225 266.385L307.253 266.239C307.902 266.224 308.124 265.366 307.564 265.037L303.732 262.788C303.424 262.608 303.321 262.212 303.502 261.904L303.589 261.756C303.769 261.449 304.165 261.346 304.472 261.527L311.718 265.779C312.026 265.96 312.128 266.356 311.948 266.663L311.716 267.058C311.603 267.25 311.398 267.371 311.175 267.376Z" fill="black"/>
<path d="M317.628 248.768C319.225 249.41 319.509 250.777 318.732 252.706C318.412 253.5 318.004 254.367 317.74 254.909C317.592 255.213 317.234 255.35 316.919 255.223L316.814 255.18C316.463 255.039 316.308 254.63 316.478 254.293C316.74 253.773 317.108 253.016 317.367 252.373C317.871 251.122 317.747 250.392 316.923 250.06L316.55 249.91C315.951 249.669 315.512 249.647 315.03 250.535L314.268 251.929C313.664 253.046 312.47 253.478 311.285 253.001L310.567 252.712C309.024 252.091 308.75 250.697 309.495 248.848C309.745 248.225 310.086 247.518 310.356 246.986C310.507 246.686 310.861 246.553 311.172 246.678L311.254 246.711C311.607 246.854 311.761 247.268 311.586 247.606C311.333 248.095 310.998 248.762 310.823 249.197C310.325 250.434 310.435 251.082 311.286 251.425L311.645 251.569C312.177 251.784 312.699 251.793 313.155 250.971L313.956 249.516C314.545 248.438 315.633 247.964 316.817 248.441L317.628 248.768Z" fill="black"/>
<path d="M316.594 233.618L323.481 235.345C323.827 235.431 324.037 235.782 323.95 236.128L323.909 236.295C323.822 236.641 323.471 236.851 323.125 236.764L316.238 235.037C315.892 234.95 315.541 235.16 315.455 235.506L315.123 236.828C315.036 237.173 314.686 237.384 314.34 237.297L314.326 237.294C313.98 237.207 313.771 236.856 313.857 236.51L315.191 231.195C315.277 230.849 315.628 230.639 315.974 230.726L315.988 230.73C316.334 230.816 316.544 231.167 316.457 231.513L316.126 232.834C316.039 233.18 316.249 233.531 316.594 233.618Z" fill="black"/>
<path d="M326.011 222.076L317.658 221.137C317.304 221.098 317.049 220.778 317.089 220.424L317.593 215.948C317.632 215.593 317.952 215.338 318.306 215.378L318.32 215.38C318.674 215.42 318.929 215.739 318.89 216.093L318.55 219.116C318.51 219.47 318.765 219.789 319.119 219.829L320.73 220.01C321.084 220.05 321.404 219.795 321.443 219.44L321.708 217.088C321.748 216.734 322.067 216.479 322.421 216.519C322.776 216.558 323.031 216.878 322.991 217.232L322.726 219.585C322.686 219.939 322.942 220.258 323.296 220.298L324.864 220.474C325.218 220.514 325.537 220.259 325.577 219.905L325.93 216.769C325.97 216.415 326.289 216.159 326.643 216.199L326.672 216.202C327.026 216.242 327.281 216.562 327.241 216.916L326.725 221.507C326.685 221.861 326.366 222.116 326.011 222.076Z" fill="black"/>
<path d="M320.45 200.197C319.647 200.22 319.269 200.576 319.295 201.479L319.341 203.085C319.351 203.441 319.649 203.721 320.005 203.711L321.725 203.662C322.082 203.651 322.362 203.354 322.352 202.998L322.306 201.392C322.28 200.489 321.884 200.156 321.081 200.179L320.45 200.197ZM327.28 199.492L323.962 201.295C323.749 201.411 323.619 201.637 323.626 201.88L323.657 202.961C323.667 203.317 323.964 203.597 324.32 203.587L327.101 203.507C327.457 203.497 327.755 203.778 327.765 204.134L327.77 204.307C327.78 204.663 327.499 204.96 327.143 204.97L318.742 205.211C318.385 205.221 318.088 204.94 318.078 204.584L317.993 201.602C317.949 200.058 319.165 198.77 320.71 198.726L321.384 198.707C322.125 198.686 322.786 199.003 323.188 199.535C323.372 199.779 323.721 199.829 323.989 199.682L326.657 198.219C327.079 197.987 327.598 198.284 327.612 198.766L327.616 198.907C327.623 199.149 327.493 199.376 327.28 199.492Z" fill="black"/>
<path d="M143.316 245.032C143.414 245.025 143.48 245.019 143.504 245.009C143.412 244.824 143.997 243.748 143.878 243.727C143.839 243.721 143.784 243.716 143.713 243.716C143.572 244.15 143.439 244.591 143.316 245.032ZM149.597 231.533C149.582 231.507 149.565 231.483 149.548 231.455C149.284 231.325 149.022 231.177 148.76 231.015C149.116 231.248 149.408 231.427 149.597 231.533ZM230.542 150.517C230.589 150.594 230.635 150.669 230.679 150.744C230.965 150.962 231.241 151.182 231.511 151.403C231.143 151.069 230.843 150.791 230.542 150.517Z" fill="white"/>
<path d="M149.548 231.454C149.565 231.482 149.582 231.507 149.597 231.533C149.408 231.426 149.116 231.248 148.76 231.015C149.022 231.176 149.284 231.325 149.548 231.454Z" fill="white"/>
<path d="M207.997 147.894L207.997 147.898C207.854 148.262 207.74 148.568 207.651 148.788C207.691 148.684 207.734 148.559 207.79 148.412C207.809 148.363 207.828 148.311 207.848 148.256C207.89 148.147 207.935 148.027 207.984 147.896C207.988 147.896 207.993 147.894 207.997 147.894Z" fill="white"/>
<path d="M219.73 146.808C219.58 147.142 219.383 147.321 219.103 147.248C219.31 147.097 219.518 146.952 219.73 146.808Z" fill="white"/>
<path d="M231.511 151.403C231.241 151.181 230.965 150.962 230.679 150.744C230.634 150.669 230.589 150.594 230.542 150.517C230.842 150.791 231.143 151.069 231.511 151.403Z" fill="white"/>
<path d="M207.997 147.898C207.854 148.262 207.74 148.568 207.652 148.788C207.691 148.685 207.734 148.559 207.791 148.412C207.809 148.363 207.828 148.311 207.849 148.257C207.89 148.148 207.935 148.028 207.984 147.896C207.988 147.896 207.993 147.898 207.997 147.898Z" fill="white"/>
<path d="M242.188 132.37C242.081 132.292 241.968 132.214 241.857 132.134C241.994 132.193 242.105 132.274 242.188 132.37Z" fill="white"/>
<path d="M219.73 146.808C219.58 147.142 219.383 147.321 219.103 147.248C219.31 147.097 219.518 146.952 219.73 146.808Z" fill="white"/>
<path d="M241.858 132.135C241.968 132.216 242.081 132.293 242.189 132.371C242.105 132.275 241.995 132.195 241.858 132.135ZM129.957 244.101C123.753 242.742 118.267 239.852 113.653 235.441C107.614 229.676 104.393 222.499 103.305 214.311C102.318 206.852 103.208 199.574 105.684 192.486C105.896 191.869 106.12 191.15 106.576 190.741C107.074 190.29 107.889 189.876 108.491 189.96C109.025 190.034 109.577 190.753 109.896 191.31C110.165 191.776 110.141 192.42 110.194 192.993C110.713 198.749 112.454 204.005 116.68 208.142C122.153 213.501 128.602 214.807 135.668 213.008C138.541 218.72 143.422 232.438 132.071 244.468C131.362 244.373 130.658 244.254 129.957 244.101ZM212.343 125.388C210.307 118.53 205.457 114.42 198.877 112.238C196.757 111.531 194.469 111.325 192.252 110.905C191.864 110.827 191.462 110.818 191.071 110.744C190.072 110.544 189.332 110.019 189.228 108.942C189.13 107.907 189.738 107.233 190.648 106.944C193.347 106.093 196.02 105.091 198.782 104.554C209.052 102.545 219.027 103.338 228.142 108.879C236.624 114.039 241.602 121.689 243.677 131.156C239.241 135.473 227.333 144.649 212.208 137.095C213.357 133.31 213.536 129.414 212.343 125.388ZM226.694 159.247C227.382 160.282 228.077 161.281 228.751 162.247C230.177 164.294 231.525 166.227 232.641 168.219C235.235 172.836 235.047 177.313 232.049 181.904C230.706 183.962 229.078 185.955 227.21 187.822C226.208 188.825 225.11 189.821 223.941 190.781C219.956 194.069 216.465 195.298 212.629 194.767C208.442 194.189 204.651 192.546 201.03 189.743C200.251 189.143 198.187 187.819 195.84 188.538C193.775 189.17 192.007 190.212 190.59 191.629C189.444 192.774 188.541 194.155 187.893 195.745C187.099 197.714 187.317 199.673 188.537 201.573C188.733 201.884 188.93 202.194 189.13 202.501C190.368 204.419 191.534 206.223 192.312 208.076C194.814 214.038 194.381 218.927 190.939 223.461C189.633 225.185 188.239 226.787 186.807 228.219C185.265 229.761 183.619 231.163 181.912 232.386C179.74 233.943 177.963 234.809 176.152 235.2C172.275 236.035 168.621 235.006 164.308 231.869C163.085 230.98 161.901 230.005 160.642 228.973C160.049 228.487 159.452 227.998 158.85 227.514L153.561 227.786C153.257 228.084 152.896 228.44 151.998 228.168C151.748 227.894 151.479 227.614 151.19 227.312C150.71 226.82 149.701 225.776 149.251 225.075C149.526 224.628 149.791 224.213 150.042 223.903C153.973 219.076 157.732 214.888 161.53 211.091C166.661 205.96 171.755 201.653 177.113 197.924C177.62 197.571 178.097 197.207 178.563 196.861C180.916 195.086 181.719 194.666 182.885 195.063L187.846 192.864C188.224 191.978 188.735 191.217 189.409 190.543C190.137 189.815 191.085 189.159 192.293 188.541L194.221 183.607C194.089 183.25 193.869 182.659 194.916 181.272C195.655 180.293 196.396 179.309 197.132 178.328C200.205 174.235 203.379 170.005 206.747 166.154C208.31 164.37 209.969 162.598 211.672 160.895C214.894 157.673 218.405 154.568 222.112 151.659C222.238 151.623 222.366 151.597 222.506 151.576C223.133 151.474 223.911 151.525 224.932 151.918C225.659 152.199 226.509 152.655 227.511 153.359C227.586 153.666 227.472 153.905 227.085 154.322L226.694 159.247ZM204.655 211.171C203.865 209.712 204.109 207.761 205.363 206.508L205.374 206.497C206.004 205.873 206.767 205.467 207.573 205.324C207.799 205.282 208.029 205.261 208.259 205.265C209.315 205.27 210.337 205.721 211.137 206.532C212.557 207.969 212.407 210.272 210.794 211.886C209.997 212.677 208.977 213.112 207.918 213.109C206.913 213.106 205.965 212.701 205.248 211.973C205.007 211.732 204.81 211.463 204.655 211.171ZM252.142 237.907C251.295 239.19 250.37 240.425 249.391 241.671C249.383 241.687 249.37 241.705 249.352 241.723C248.78 242.456 248.192 243.193 247.589 243.945C246.904 244.798 246.199 245.681 245.507 246.57C236.522 254.994 226.882 259.511 216.048 260.389C206.285 261.174 197.725 258.711 190.596 253.062C188.896 251.714 187.384 249.886 185.782 247.956C185.392 247.482 184.998 247.011 184.599 246.54C184.545 246.474 184.485 246.408 184.428 246.345C185.21 246.089 185.994 245.824 186.77 245.555C194.173 243.001 201.261 239.04 209.748 232.706C214.055 229.49 218.118 225.976 221.835 222.259C226.885 217.209 231.449 211.624 235.396 205.661C239.605 199.305 242.98 192.543 245.465 185.506C245.817 185.745 246.217 185.977 246.67 186.186C246.715 186.207 246.759 186.228 246.804 186.248C252.519 190.609 256.247 196.306 258.191 203.667C260.967 214.151 259.851 223.959 254.764 233.514C254.696 233.648 254.624 233.785 254.552 233.916C253.828 235.249 253.025 236.583 252.142 237.907ZM253.645 139.173C251.903 139.132 250.176 139.212 248.476 139.416C248.467 138.398 248.443 137.671 248.443 137.652L248.413 137.068C248.333 135.538 248.25 133.957 247.963 132.311C245.865 120.392 239.89 111.363 230.209 105.476C221.029 99.8926 210.195 98.2653 198.022 100.643C195.69 101.097 193.5 101.819 191.382 102.517C190.738 102.732 190.096 102.944 189.455 103.144C188.456 103.457 187.597 103.97 186.899 104.668C185.673 105.894 185.094 107.547 185.264 109.321C185.526 112.048 187.456 114.091 190.298 114.649C190.671 114.723 190.993 114.759 191.256 114.789C191.342 114.797 191.432 114.803 191.504 114.815C192.237 114.952 192.959 115.072 193.66 115.182C195.094 115.412 196.452 115.629 197.621 116.017C203.431 117.949 206.999 121.385 208.525 126.521C209.557 130.005 209.354 133.59 207.889 137.423C207.585 136.821 207.23 136.347 206.953 136.028C206.177 135.139 203.272 132.425 198.454 134.91C198.314 134.984 198.174 135.065 198.04 135.145L197.969 135.187C196.54 136.008 195.185 137.052 193.947 138.29C193.47 138.767 193.02 139.265 192.587 139.781C192.515 138.284 192.014 136.667 190.756 135.57C188.683 133.759 185.766 134.093 184.925 134.237C183.2 134.535 181.9 135.526 181.041 136.182L181.008 136.203C180.012 136.966 179.057 137.796 178.171 138.682C175.919 140.934 174.052 143.547 172.521 146.593C172.548 146.494 172.569 146.396 172.589 146.297C173.598 141.698 170.687 139.92 169.78 139.491C168.098 138.686 165.903 138.585 164.197 139.229C162.95 139.7 161.721 140.53 160.554 141.696C160.459 141.791 160.367 141.89 160.28 141.976C154.117 148.444 150.901 156.182 150.718 164.984C150.7 165.986 150.727 166.968 150.798 167.927C150.61 167.531 150.399 167.128 150.157 166.725C149.215 165.163 147.249 163.585 144.991 163.571C143.485 163.556 141.871 164.263 140.678 165.456C140.141 165.993 139.732 166.592 139.467 167.24C138.587 169.39 138.103 171.204 137.945 172.967C137.291 180.325 139.396 186.935 143.739 191.892C140.58 192.534 137.919 193.918 135.804 196.033C134.948 196.889 134.179 197.874 133.513 198.956C131.672 201.966 132.036 205.492 134.416 207.729C134.882 208.164 135.406 208.516 135.967 208.785C135.934 208.793 135.904 208.806 135.875 208.811C129.22 210.861 124.006 209.74 119.466 205.296C116.35 202.239 114.662 198.218 114.158 192.626C114.153 192.542 114.149 192.461 114.141 192.375C114.099 191.671 114.028 190.496 113.356 189.336C112.587 187.987 111.215 186.317 109.044 186.013C106.511 185.658 104.483 187.27 103.91 187.783C103.838 187.842 103.77 187.911 103.701 187.979C102.66 189.021 102.236 190.255 101.953 191.075L101.92 191.174C99.1781 199.028 98.3152 206.989 99.3558 214.837C100.614 224.31 104.499 232.211 110.903 238.323C116.024 243.217 122.147 246.471 129.103 247.991C131.347 248.48 133.551 248.656 135.686 248.823C136.51 248.888 137.288 248.951 138.084 249.031C138.162 249.037 138.299 249.043 138.484 249.049C138.454 249.323 138.421 249.595 138.395 249.873C138.158 252.333 138.31 255.044 138.871 258.409C139.244 260.625 140.663 262.325 142.662 262.964C144.69 263.614 146.957 263.005 148.583 261.379C148.756 261.206 148.926 261.018 149.078 260.83C149.877 259.846 150.382 258.763 150.704 258.059C150.874 257.704 151.041 257.358 151.214 257.018C151.046 262.799 152.675 268.478 156.092 274.008C157.064 275.576 158.291 277.059 159.633 278.294C162.096 280.572 165.646 280.596 167.883 278.358C168.82 277.422 169.443 276.178 169.673 274.773C169.694 274.669 169.709 274.564 169.724 274.46C173.833 283.241 181.46 290.253 190.861 293.067C193.02 293.712 195.497 294.004 198.02 293.908C199.69 293.848 201.206 293.216 202.289 292.133C203.729 290.692 204.249 288.676 203.816 286.692C206.909 289.057 210.351 290.733 214.109 291.688C215.446 292.028 216.946 292.162 218.452 292.081C219.723 292.009 221.021 291.398 222.011 290.407C222.599 289.82 223.019 289.154 223.264 288.433C223.517 287.684 223.55 286.929 223.443 286.219C226.518 287.385 229.892 287.996 233.546 288.047C234.822 288.065 236.084 287.859 237.19 287.456C238.011 287.155 238.721 286.707 239.303 286.125C240.347 285.081 240.893 283.653 240.8 282.206C240.782 281.925 240.744 281.654 240.681 281.389C242.19 281.711 243.738 281.928 245.328 282.039C247.953 282.223 250.456 281.916 252.875 281.614C253.158 281.581 253.442 281.543 253.725 281.51C254.9 281.367 256.072 280.767 257.024 279.815C257.549 279.291 258.241 278.419 258.569 277.268C258.865 276.227 258.775 275.201 258.304 274.198C260.723 274.637 263.22 274.83 265.788 274.78C267.458 274.75 269.886 274.499 271.679 272.706C273.401 270.985 273.723 268.694 273.812 266.892L273.815 266.865C273.821 266.633 273.827 266.4 273.827 266.191C273.845 263.799 273.655 261.479 273.264 259.238C273.762 259.474 274.296 259.626 274.848 259.682C276.333 259.838 277.816 259.298 278.917 258.197C279.317 257.797 279.666 257.323 279.955 256.795C280.707 255.435 280.969 254.033 281.055 253.105C281.438 249.06 281.224 245.213 280.421 241.589C280.988 241.738 281.594 241.788 282.214 241.693L282.25 241.687C283.362 241.511 284.499 240.917 285.358 240.058C286.006 239.411 286.447 238.671 286.677 237.868C287.092 236.44 287.271 234.948 287.196 233.555C287.011 230.203 286.346 227.086 285.21 224.213C286.269 224.395 287.421 224.281 288.488 223.589C288.796 223.39 289.088 223.151 289.353 222.885C290.624 221.615 291.093 219.959 291.254 219.088C291.535 217.621 291.161 216.371 290.917 215.542L290.858 215.333C289.707 211.223 287.965 207.608 285.645 204.5C286.477 204.699 287.381 204.768 288.296 204.622C289.468 204.434 290.524 203.897 291.348 203.074C292.532 201.889 293.167 200.174 293.138 198.241C293.117 196.92 293.07 195.506 292.751 194.036C290.505 183.778 283.052 175.149 273.606 170.631C274.561 170.541 276.186 170.234 277.457 168.964C278.259 168.161 278.767 167.129 278.922 165.977C279.232 163.651 278.171 161.671 277.702 160.934C276.808 159.514 275.519 158.553 274.633 157.954C268.576 153.865 262.324 151.945 255.941 152.196C256.582 151.847 257.244 151.507 257.93 151.155L258.703 150.758C259.371 150.412 259.959 149.991 260.448 149.502C261.758 148.193 262.349 146.457 262.121 144.613C261.794 141.976 259.822 140.041 256.974 139.555C255.885 139.373 254.808 139.203 253.645 139.173Z" fill="black"/>
<path d="M241.857 132.134C241.967 132.215 242.081 132.292 242.188 132.37C242.104 132.274 241.994 132.194 241.857 132.134ZM230.678 150.745C230.729 150.831 230.777 150.915 230.822 151.001C232.012 153.247 231.621 155.29 230.004 157.033C232.139 160.23 234.346 163.117 236.112 166.261C239.491 172.277 239.166 178.281 235.385 184.077C232.945 187.818 229.906 191.03 226.475 193.852C222.314 197.286 217.675 199.491 212.083 198.713C207.056 198.018 202.597 195.993 198.592 192.894C198.159 192.563 197.444 192.211 197.008 192.343C194.47 193.122 192.605 194.729 191.588 197.232C191.263 198.035 191.391 198.652 191.889 199.425C193.365 201.73 194.934 204.027 195.983 206.532C198.805 213.249 198.703 219.817 194.112 225.87C191.286 229.59 188.041 232.895 184.232 235.624C182.021 237.209 179.677 238.515 176.986 239.094C171.295 240.317 166.439 238.344 161.962 235.09C160.048 233.694 158.249 232.134 156.358 230.619C154.362 232.591 151.934 232.657 149.548 231.452C149.566 231.482 149.581 231.508 149.596 231.535C149.408 231.425 149.116 231.246 148.761 231.016C149.023 231.177 149.282 231.323 149.548 231.452C148.502 229.904 143.348 226.158 145.695 223.255C146.086 222.614 146.483 221.967 146.954 221.388C155.149 211.332 164.146 202.097 174.834 194.653C177.62 192.714 180.212 189.931 184.179 191.297C185.462 188.302 187.708 186.408 190.485 184.991C189.626 182.682 190.405 180.633 191.738 178.87C195.655 173.695 199.48 168.414 203.749 163.531C208.698 157.872 214.214 152.739 220.179 148.114C224.12 146.531 227.774 148.514 230.678 150.745C230.634 150.67 230.589 150.596 230.542 150.518C230.843 150.789 231.141 151.07 231.511 151.404C231.24 151.18 230.962 150.962 230.678 150.745ZM202.411 214.767C199.419 211.74 199.492 206.723 202.564 203.668C205.798 200.458 210.773 200.488 213.976 203.733C216.929 206.733 216.768 211.547 213.605 214.703C210.44 217.863 205.492 217.89 202.411 214.767ZM251.324 175.47C251.744 176.66 251.171 177.382 249.927 177.481C249.384 177.523 248.671 177.806 248.394 178.215C247.833 179.044 247.323 180.001 247.144 180.974C246.899 182.298 248.346 182.414 249.074 182.969C255.734 188.001 259.933 194.676 262.044 202.646C265.604 216.109 263.104 228.608 255.461 240.111C253.343 243.302 250.81 246.217 248.465 249.253C239.37 257.853 228.864 263.349 216.366 264.358C206.004 265.194 196.372 262.722 188.12 256.182C185.632 254.207 183.64 251.571 181.564 249.119C180.798 248.215 180.258 247.765 179.079 248.341C177.722 249.006 176.302 249.376 176.448 251.443C176.529 252.556 174.751 252.938 173.686 252.117C172.353 251.088 172.156 248.976 173.221 247.303C174.158 245.835 175.587 245.075 177.165 244.541C179.927 243.604 182.716 242.741 185.472 241.787C193.505 239.015 200.614 234.549 207.364 229.511C217.082 222.255 225.363 213.599 232.073 203.466C236.915 196.148 240.617 188.306 243.099 179.889C243.449 178.704 243.869 177.532 244.394 176.416C245.259 174.579 247.085 173.529 248.878 173.734C249.999 173.86 250.921 174.322 251.324 175.47ZM256.31 143.485C255.398 143.33 254.47 143.178 253.549 143.157C250.324 143.077 247.243 143.462 244.293 144.3C244.519 143.609 244.502 138.562 244.463 137.867C244.377 136.241 244.32 134.598 244.04 132.999C243.93 132.375 243.807 131.764 243.677 131.155C239.241 135.472 227.332 144.648 212.207 137.094C211.787 138.487 211.235 139.862 210.572 141.228C210.405 141.574 208.821 145.729 207.998 147.895L207.994 147.898C207.852 148.262 207.738 148.566 207.649 148.787C207.691 148.685 207.735 148.557 207.792 148.411C207.81 148.364 207.828 148.31 207.846 148.256C207.89 148.146 207.935 148.029 207.986 147.895C205.238 148.28 202.64 149.34 200.254 151.499C200.278 150.628 200.254 150.073 200.323 149.528C200.669 146.706 202.137 144.409 203.742 142.154C204.804 140.668 204.792 139.612 203.948 138.643C203.113 137.682 201.899 137.614 200.3 138.437C200.181 138.503 200.07 138.571 199.954 138.64C193.68 142.247 189.835 151.044 191.448 158.098C191.538 158.503 191.562 158.921 191.618 159.33L191.311 159.583C190.866 159.3 190.353 159.091 189.998 158.724C186.929 155.607 186.411 151.694 186.906 147.632C187.184 145.373 188.088 143.199 188.538 140.953C188.697 140.186 188.616 138.99 188.136 138.57C187.578 138.083 186.424 138.021 185.6 138.164C184.822 138.299 184.082 138.871 183.42 139.372C179.13 142.642 176.353 147.018 174.524 152.002C172.979 156.22 172.37 160.569 173.375 165.047C173.446 165.38 173.267 165.774 173.207 166.138C172.829 166.064 172.378 166.096 172.092 165.894C171.448 165.44 170.818 164.93 170.299 164.34C167.594 161.259 166.676 157.53 167.019 153.596C167.258 150.852 168.097 148.153 168.699 145.444C168.905 144.51 168.944 143.505 168.058 143.084C167.361 142.751 166.319 142.682 165.601 142.959C164.691 143.296 163.846 144.004 163.16 144.726C157.74 150.414 154.864 157.227 154.699 165.063C154.6 170.023 155.775 174.712 158.913 178.751C159.402 179.377 160.69 179.842 159.981 180.868C159.289 181.871 158.188 181.152 157.278 180.952C156.73 180.833 156.196 180.573 155.679 180.326C152.193 178.659 149.938 175.843 148.36 172.41C147.812 171.205 147.424 169.911 146.747 168.786C146.392 168.198 145.572 167.557 144.954 167.554C144.337 167.546 143.391 168.169 143.149 168.751C142.556 170.203 142.052 171.763 141.915 173.314C141.126 182.197 144.997 190.28 153.596 194.381C154.017 194.587 154.312 195.049 154.664 195.395C154.148 195.643 153.641 196.066 153.116 196.097C152.29 196.141 151.451 195.899 150.616 195.804C149.477 195.679 148.326 195.435 147.186 195.482C142.882 195.665 139.255 197.21 136.909 201.034C136.026 202.478 136.167 203.906 137.142 204.822C138.01 205.636 139.477 205.619 140.841 204.798C141.974 204.112 143.075 203.345 144.271 202.793C146.028 201.985 147.865 201.37 149.986 201.659C149.78 202.014 149.667 202.247 149.521 202.459C148.062 204.604 147.149 206.811 146.773 209.09C145.145 209.794 138.919 212.046 137.046 212.619C136.583 212.76 136.124 212.891 135.668 213.007C138.54 218.719 143.421 232.437 132.071 244.467C134.179 244.756 136.336 244.849 138.463 245.066C138.677 245.084 142.409 245.093 143.316 245.033C142.853 246.712 142.534 248.457 142.361 250.253C142.119 252.72 142.388 255.291 142.799 257.749C143.094 259.493 144.848 259.726 145.984 258.321C146.45 257.749 146.784 257.05 147.097 256.368C148.938 252.433 151.345 248.916 154.77 246.183C156.011 245.187 157.392 244.36 158.755 243.427C158.919 243.793 159.006 243.892 158.982 243.945C158.806 244.349 158.621 244.742 158.424 245.136C153.856 254.255 154.097 263.2 159.48 271.907C160.262 273.171 161.243 274.361 162.334 275.369C163.754 276.676 165.431 276.013 165.744 274.108C165.884 273.287 165.828 272.431 165.813 271.593C165.747 268.001 166.336 264.532 167.812 261.254C168.412 259.921 169.22 258.677 169.933 257.397C170.079 257.442 170.219 257.492 170.366 257.538C170.375 258.042 170.408 258.545 170.398 259.05C170.09 272.618 179.178 285.411 192.003 289.252C193.867 289.809 195.926 290 197.876 289.928C199.916 289.85 200.576 288.058 199.404 286.396C198.816 285.565 198.169 284.774 197.641 283.906C195.023 279.599 193.848 274.976 194.815 269.947C194.931 269.335 195.283 268.769 195.522 268.184C195.662 268.21 195.799 268.241 195.94 268.273C196.098 268.664 196.277 269.058 196.414 269.457C197.636 273.15 199.44 276.517 201.981 279.476C205.507 283.586 209.811 286.482 215.084 287.824C216.096 288.083 217.184 288.158 218.222 288.104C218.685 288.077 219.344 287.585 219.49 287.158C219.618 286.767 219.293 286.078 218.962 285.712C218.082 284.718 217.032 283.877 216.161 282.881C214.166 280.599 212.854 277.969 212.562 274.914C212.496 274.234 212.705 273.524 212.789 272.832C212.92 272.814 213.054 272.794 213.188 272.779C213.49 273.134 213.821 273.471 214.09 273.852C218.844 280.611 225.387 283.951 233.608 284.064C234.345 284.073 235.129 283.968 235.818 283.714C237.023 283.273 237.167 282.146 236.153 281.364C235.63 280.961 235.019 280.678 234.44 280.35C231.085 278.438 228.624 275.763 227.444 272.029C227.253 271.426 227.324 270.74 227.247 269.72C227.921 270.144 228.246 270.272 228.482 270.501C233.284 275.077 239.04 277.606 245.608 278.064C248.132 278.243 250.715 277.861 253.247 277.554C253.82 277.482 254.575 276.751 254.736 276.179C254.843 275.803 254.116 275.081 253.626 274.669C253.131 274.258 252.463 274.049 251.881 273.736C248.201 271.738 245.284 268.988 243.554 265.122C243.259 264.463 243.205 263.688 243.041 262.969C243.176 262.906 243.313 262.841 243.447 262.777C243.823 263.04 244.214 263.287 244.574 263.577C250.749 268.54 257.799 270.95 265.713 270.796C268.791 270.737 269.68 269.782 269.833 266.695C269.841 266.519 269.842 266.34 269.845 266.164C269.884 260.338 268.604 254.835 265.643 249.791C264.686 248.16 263.508 246.66 262.464 245.073C262.276 244.784 262.261 244.375 262.169 244.026C262.497 243.99 262.84 243.88 263.156 243.927C263.538 243.987 263.916 244.151 264.278 244.315C268.158 246.036 270.896 248.953 272.951 252.589C273.386 253.358 273.729 254.178 274.212 254.918C274.913 256.001 275.844 256.001 276.467 254.87C276.82 254.232 277.022 253.462 277.088 252.735C277.915 243.986 275.718 236.174 269.88 229.484C269.597 229.159 269.433 228.733 269.024 228.026C269.961 228.127 270.582 228.044 271.044 228.273C272.583 229.031 274.143 229.791 275.554 230.749C277.811 232.284 279.097 234.65 280.448 236.937C280.68 237.331 281.274 237.805 281.629 237.754C282.091 237.68 282.727 237.194 282.852 236.764C283.13 235.807 283.27 234.766 283.216 233.775C282.778 225.796 279.244 219.506 272.775 214.845C272.444 214.608 272.161 214.301 271.532 213.732C272.459 213.58 273.035 213.308 273.494 213.439C275.567 214.021 277.772 214.417 279.6 215.458C281.431 216.508 282.842 218.283 284.509 219.646C284.992 220.04 285.973 220.472 286.314 220.251C286.851 219.899 287.206 219.049 287.34 218.348C287.453 217.745 287.2 217.044 287.021 216.406C284.284 206.64 277.907 200.377 268.416 197.121C268.04 196.99 267.682 196.817 266.999 196.527C267.632 196.211 267.915 195.964 268.219 195.934C270.146 195.737 272.097 195.331 274.003 195.483C278.149 195.811 281.835 197.463 285.167 199.977C285.826 200.475 286.879 200.812 287.667 200.687C288.794 200.508 289.17 199.386 289.155 198.303C289.138 197.164 289.099 195.998 288.857 194.885C285.888 181.325 272.263 170.833 258.184 171.228C257.701 171.24 257.218 171.187 256.732 171.16C257.083 170.527 257.483 170.193 257.919 169.919C261.033 167.98 264.476 167.072 268.1 166.836C269.687 166.729 271.285 166.753 272.872 166.687C273.785 166.645 274.835 166.46 274.972 165.446C275.073 164.676 274.76 163.731 274.331 163.057C273.877 162.335 273.129 161.748 272.404 161.255C263.301 155.111 253.836 154.555 244.044 159.528C243.641 159.733 243.232 159.928 242.827 160.131C242.731 160.041 242.633 159.954 242.538 159.859C242.883 159.185 243.194 158.487 243.591 157.839C245.882 154.123 249.169 151.486 252.892 149.332C254.192 148.58 255.54 147.906 256.88 147.217C257.745 146.769 258.288 146.095 258.166 145.102C258.04 144.07 257.238 143.643 256.31 143.485Z" fill="#0CEFE8"/>
<path d="M245.001 132.516C240.288 137.102 227.577 146.892 211.36 138.792L209.926 138.077L210.392 136.543C211.507 132.867 211.55 129.394 210.523 125.926C208.789 120.085 204.783 116.197 198.279 114.039C196.939 113.593 195.492 113.362 193.958 113.118C193.286 113.011 192.59 112.9 191.898 112.769C191.736 112.737 191.591 112.724 191.445 112.708C191.227 112.685 190.982 112.659 190.716 112.608C188.739 112.213 187.515 110.945 187.339 109.125C187.229 107.977 187.597 106.919 188.373 106.143C188.828 105.688 189.4 105.348 190.073 105.134C190.732 104.926 191.386 104.711 192.039 104.496C194.094 103.818 196.218 103.118 198.421 102.69C210.229 100.381 220.274 101.875 229.128 107.257C237.744 112.498 243.263 120.402 245.532 130.749L245.757 131.781L245.001 132.516Z" fill="#EFCE0F"/>
<path d="M187.031 104.8C185.847 105.984 185.285 107.583 185.448 109.301C185.704 111.939 187.572 113.916 190.326 114.466L190.342 114.469L190.358 114.472C190.702 114.538 191.002 114.57 191.243 114.596C191.338 114.606 191.468 114.62 191.512 114.628L191.53 114.632L191.544 114.634C192.264 114.771 192.975 114.884 193.663 114.993C195.115 115.224 196.487 115.442 197.676 115.839C203.552 117.788 207.158 121.264 208.704 126.468C209.621 129.566 209.579 132.682 208.575 135.993L207.644 139.059L210.511 140.491C218.005 144.234 225.638 144.796 233.199 142.162C239.136 140.093 243.613 136.514 246.324 133.876L247.837 132.404L247.385 130.342C245.002 119.468 239.191 111.155 230.115 105.635C225.298 102.706 220.006 100.852 214.385 100.12C209.319 99.461 203.825 99.6988 198.054 100.827C195.738 101.278 193.555 101.997 191.444 102.693C190.799 102.906 190.154 103.118 189.508 103.322C188.532 103.632 187.703 104.128 187.031 104.8ZM242.188 132.37C242.105 132.275 241.994 132.194 241.857 132.134C241.967 132.215 242.081 132.292 242.188 132.37ZM189.715 107.485C189.958 107.242 190.278 107.061 190.647 106.943C193.347 106.093 196.02 105.09 198.782 104.553C209.052 102.545 219.026 103.337 228.141 108.879C236.624 114.038 241.601 121.688 243.676 131.156C239.241 135.473 227.333 144.648 212.208 137.094C213.356 133.309 213.536 129.413 212.343 125.387C210.306 118.529 205.457 114.42 198.877 112.237C196.756 111.53 194.468 111.324 192.252 110.904C191.864 110.826 191.462 110.818 191.071 110.743C190.072 110.543 189.332 110.019 189.228 108.942C189.169 108.327 189.36 107.839 189.715 107.485Z" fill="black"/>
<path d="M131.818 246.349C131.015 246.241 130.274 246.112 129.553 245.956C122.968 244.512 117.178 241.437 112.341 236.812C106.291 231.037 102.617 223.55 101.423 214.561C100.427 207.034 101.258 199.397 103.892 191.859L103.927 191.755C104.157 191.08 104.473 190.156 105.173 189.456C105.218 189.411 105.263 189.368 105.31 189.326C106.105 188.607 107.433 187.896 108.752 188.078C110.085 188.265 111.005 189.426 111.544 190.367C111.973 191.112 112.024 191.914 112.061 192.499C112.068 192.606 112.074 192.712 112.084 192.815C112.635 198.93 114.517 203.367 118.008 206.784C122.786 211.463 128.409 212.897 135.2 211.168L136.679 210.791L137.364 212.155C140.27 217.934 145.707 232.78 133.451 245.77L132.783 246.479L131.818 246.349Z" fill="#EFCE0F"/>
<path d="M103.831 188.113C102.818 189.126 102.404 190.341 102.13 191.143L102.095 191.247C99.366 199.064 98.5066 206.99 99.5408 214.809C100.794 224.24 104.66 232.105 111.031 238.186C116.121 243.053 122.215 246.291 129.143 247.809C129.923 247.978 130.713 248.116 131.564 248.23L133.495 248.489L134.832 247.072C140.473 241.093 143.22 234.091 142.998 226.259C142.82 220.016 140.758 214.679 139.06 211.301L137.689 208.575L134.732 209.328C128.637 210.88 123.601 209.604 119.336 205.428C116.186 202.344 114.482 198.284 113.975 192.651C113.966 192.553 113.961 192.466 113.955 192.379C113.912 191.694 113.84 190.549 113.184 189.412C112.441 188.114 111.108 186.49 109.016 186.199C106.539 185.855 104.574 187.433 104.03 187.924C103.971 187.977 103.9 188.044 103.831 188.113ZM106.515 190.797C106.535 190.778 106.555 190.759 106.575 190.74C107.074 190.29 107.888 189.875 108.49 189.958C109.024 190.033 109.576 190.752 109.895 191.31C110.164 191.775 110.14 192.419 110.194 192.992C110.712 198.749 112.453 204.004 116.68 208.141C122.153 213.5 128.602 214.806 135.668 213.007C138.54 218.719 143.422 232.437 132.071 244.467C131.361 244.372 130.657 244.252 129.956 244.1C123.752 242.741 118.267 239.851 113.653 235.44C107.613 229.674 104.392 222.498 103.305 214.31C102.318 206.85 103.207 199.572 105.684 192.485C105.886 191.896 106.099 191.213 106.515 190.797Z" fill="black"/>
<path d="M189.891 207.299C193.808 212.184 194.217 219.057 187.516 225.086C191.828 219.621 192.72 213.707 189.891 207.299Z" fill="white"/>
<path d="M228.862 183.486C232.293 178.245 232.929 173.07 230.124 167.432C234.502 171.485 233.894 179.567 228.862 183.486Z" fill="white"/>
<path d="M224.638 154.345C223.898 155.058 222.767 155.081 222.14 154.394C221.468 153.661 221.535 152.497 222.295 151.757C223.061 151.009 224.107 150.989 224.769 151.708C225.434 152.429 225.376 153.633 224.638 154.345ZM228.862 183.487C232.293 178.245 232.929 173.07 230.124 167.433C234.502 171.485 233.894 179.567 228.862 183.487ZM223.81 188.666C220.233 192.845 215.374 194.451 211.112 193.137C205.997 191.56 201.71 188.693 198.226 184.643C196.845 183.035 196.779 181.133 197.895 179.462C199.608 176.9 201.546 174.485 203.459 172.061C204.185 171.144 205.106 170.383 206.177 169.313C206.235 170.43 206.308 171.254 206.312 172.081C206.338 176.858 206.343 181.634 206.358 186.411C206.36 186.676 206.352 186.943 206.378 187.205C206.466 188.044 206.461 189.034 207.652 189.004C208.789 188.978 209.232 188.223 209.229 187.126C209.214 184.031 209.214 180.937 209.222 177.842C209.232 174.347 209.296 170.854 209.261 167.359C209.238 165.166 211.152 164.443 212.19 163.055C212.35 163.076 212.512 163.095 212.671 163.115C212.666 172.644 212.662 182.172 212.66 191.924C216.755 192.917 220.208 190.894 223.81 188.666ZM187.516 225.085C191.827 219.62 192.72 213.707 189.89 207.298C193.807 212.183 194.216 219.057 187.516 225.085ZM170.552 231.376C170.542 232.279 170.986 232.422 171.588 232.578C174.743 233.388 177.624 232.54 180.396 231.082C181.01 230.757 181.609 230.398 182.215 230.055C178.203 234.218 173.391 235.496 168.236 232.572C164.566 230.49 161.396 227.853 158.69 224.652C156.884 222.515 156.599 220.112 158.186 217.928C159.87 215.601 161.899 213.52 163.778 211.332C163.921 211.4 164.064 211.467 164.208 211.533C164.255 211.989 164.342 212.447 164.346 212.902C164.375 216.886 164.388 220.869 164.412 224.852C164.418 225.471 164.333 226.137 164.536 226.693C164.716 227.192 165.321 227.981 165.584 227.925C166.166 227.797 166.725 227.286 167.146 226.802C167.358 226.559 167.279 226.037 167.279 225.643C167.295 220.554 167.453 215.457 167.241 210.378C167.131 207.766 168.607 206.496 170.534 204.907C170.584 206.201 170.665 207.24 170.661 208.276C170.646 215.975 170.643 223.677 170.552 231.376ZM153.263 225.742C152.507 226.39 151.652 226.489 150.874 225.794C150.187 225.182 150.27 223.812 150.959 223.16C151.776 222.478 152.576 222.538 153.31 223.268C154.016 223.967 154.003 225.111 153.263 225.742ZM220.18 148.114C214.216 152.738 208.698 157.873 203.747 163.533C199.478 168.414 195.657 173.693 191.739 178.869C190.406 180.634 189.628 182.681 190.486 184.993C187.707 186.409 185.462 188.3 184.181 191.297C180.212 189.93 177.618 192.716 174.835 194.654C164.147 202.096 155.15 211.331 146.954 221.386C146.482 221.966 146.086 222.614 145.694 223.254C143.35 226.158 148.503 229.906 149.548 231.454C151.935 232.654 154.363 232.588 156.357 230.62C158.248 232.135 160.047 233.694 161.964 235.089C166.441 238.345 171.295 240.318 176.987 239.095C179.678 238.515 182.021 237.207 184.232 235.624C188.041 232.893 191.287 229.59 194.112 225.868C198.702 219.817 198.804 213.248 195.982 206.531C194.933 204.028 193.363 201.73 191.889 199.426C191.392 198.65 191.264 198.035 191.587 197.234C192.605 194.729 194.47 193.123 197.007 192.344C197.445 192.21 198.162 192.563 198.592 192.896C202.596 195.994 207.057 198.018 212.082 198.712C217.674 199.489 222.314 197.286 226.476 193.853C229.906 191.028 232.946 187.819 235.386 184.08C239.166 178.282 239.494 172.277 236.112 166.263C234.347 163.119 232.139 160.228 230.002 157.031C231.62 155.29 232.01 153.247 230.82 151.002C230.777 150.917 230.728 150.831 230.679 150.744C227.773 148.513 224.12 146.533 220.18 148.114Z" fill="black"/>
<path d="M223.811 188.667C220.233 192.846 215.375 194.452 211.112 193.137C205.997 191.561 201.711 188.694 198.228 184.643C196.845 183.036 196.78 181.134 197.895 179.463C199.608 176.901 201.547 174.486 203.46 172.061C204.185 171.145 205.108 170.384 206.178 169.314C206.236 170.431 206.309 171.255 206.313 172.082C206.338 176.859 206.344 181.634 206.358 186.411C206.36 186.676 206.353 186.943 206.379 187.206C206.467 188.045 206.461 189.035 207.652 189.005C208.79 188.978 209.233 188.224 209.23 187.127C209.215 184.032 209.215 180.937 209.223 177.843C209.233 174.348 209.297 170.855 209.261 167.36C209.239 165.167 211.153 164.444 212.192 163.056C212.351 163.077 212.513 163.095 212.672 163.116C212.668 172.644 212.663 182.173 212.66 191.924C216.756 192.918 220.209 190.895 223.811 188.667Z" fill="white"/>
<path d="M170.552 231.375C170.543 232.279 170.986 232.421 171.588 232.577C174.743 233.388 177.624 232.539 180.396 231.081C181.01 230.757 181.609 230.398 182.216 230.054C178.202 234.218 173.391 235.495 168.236 232.572C164.566 230.489 161.396 227.853 158.69 224.652C156.884 222.515 156.599 220.111 158.186 217.927C159.87 215.6 161.899 213.52 163.779 211.332C163.921 211.399 164.064 211.467 164.209 211.533C164.256 211.989 164.341 212.447 164.345 212.902C164.375 216.886 164.388 220.869 164.412 224.853C164.418 225.47 164.333 226.137 164.536 226.693C164.716 227.192 165.321 227.98 165.584 227.924C166.166 227.796 166.725 227.286 167.146 226.801C167.358 226.559 167.279 226.037 167.28 225.643C167.295 220.553 167.453 215.457 167.241 210.377C167.131 207.765 168.607 206.496 170.534 204.907C170.585 206.201 170.665 207.239 170.661 208.276C170.646 215.975 170.643 223.676 170.552 231.375Z" fill="white"/>
<path d="M224.77 151.708C225.434 152.429 225.376 153.633 224.638 154.345C223.898 155.058 222.768 155.081 222.141 154.394C221.469 153.661 221.536 152.497 222.295 151.757C223.061 151.01 224.107 150.989 224.77 151.708Z" fill="white"/>
<path d="M153.311 223.269C154.016 223.968 154.003 225.111 153.264 225.742C152.506 226.39 151.652 226.49 150.875 225.795C150.188 225.183 150.27 223.812 150.96 223.16C151.776 222.478 152.576 222.539 153.311 223.269Z" fill="white"/>
<path d="M245.764 196.52C244.98 197.389 242.669 197.38 241.713 196.503C241.366 196.186 242.014 193.318 242.722 193.148C243.528 192.954 244.496 193.427 245.394 193.611C246.237 194.86 246.402 195.81 245.764 196.52ZM246.054 206.955C246.509 208.487 245.917 209.691 244.484 210.14C240.79 211.299 237.406 210.214 233.966 208.633C235.966 205.352 237.822 202.314 239.752 199.151C242.661 201.11 245.029 203.5 246.054 206.955ZM255.193 220.026C253.902 222.747 252.567 225.446 251.154 228.342C248.796 225.315 246.719 222.689 244.691 220.031C243.743 218.786 244.076 217.747 245.61 217.325C248.62 216.5 251.568 216.886 254.419 218.069C255.296 218.432 255.598 219.166 255.193 220.026ZM222.36 259.175C238.186 250.852 250.072 239.023 258.317 223.361C255.653 238.774 239.361 255.818 222.36 259.175ZM216.965 255.11C216.725 252.977 216.297 250.866 216.04 248.735C215.963 248.102 216.138 247.413 216.311 246.781C216.827 244.895 217.884 244.55 219.413 245.737C221.642 247.47 223.848 249.23 226.094 250.939C226.761 251.447 226.864 251.922 226.169 252.38C225.598 252.76 224.932 252.995 224.308 253.295C224.186 253.346 224.064 253.397 223.942 253.447C222.197 254.347 220.479 255.31 218.691 256.118C217.853 256.498 217.108 256.357 216.965 255.11ZM205.695 246.953C202.426 245.836 200.137 243.518 198.171 240.65C201.392 238.665 204.423 236.798 207.578 234.852C209.239 238.061 210.174 241.351 209.404 244.919C208.987 246.861 207.598 247.605 205.695 246.953ZM195.938 246.117C195.607 246.601 194.728 247.18 194.298 247.05C192.854 246.613 192.169 245.364 191.698 243.879C193.001 243.27 194.114 242.75 195.206 242.237C196.286 243.358 196.674 245.035 195.938 246.117ZM218.613 225.803C219.914 227.657 220.376 229.494 219.985 231.488C219.737 232.769 218.864 233.601 217.591 233.856C215.346 234.305 213.491 233.389 211.604 232.039C213.972 229.93 216.224 227.93 218.613 225.803ZM234.527 236.921C234.878 236.807 235.357 236.5 235.434 236.198C236.516 231.92 242.491 228.761 247.873 230.579C248.247 230.704 248.606 230.875 249.192 231.115C243.888 238.639 237.597 244.889 230.146 249.999C227.296 245.725 229.796 238.449 234.527 236.921ZM230.98 212.723C232.362 214.372 233.109 216.024 233.032 217.957C232.964 219.718 231.696 221.027 229.935 221.166C228.083 221.317 226.386 220.81 224.647 219.732C226.769 217.385 228.813 215.124 230.98 212.723ZM248.879 173.733C247.086 173.529 245.26 174.581 244.393 176.417C243.869 177.531 243.448 178.706 243.099 179.889C240.617 188.308 236.915 196.148 232.074 203.465C225.365 213.599 217.082 222.257 207.364 229.512C200.615 234.548 193.507 239.016 185.473 241.789C182.714 242.742 179.927 243.606 177.163 244.541C175.589 245.074 174.157 245.835 173.221 247.304C172.156 248.977 172.353 251.09 173.687 252.118C174.75 252.937 176.529 252.554 176.449 251.444C176.3 249.376 177.722 249.007 179.08 248.34C180.256 247.765 180.796 248.216 181.564 249.119C183.641 251.571 185.631 254.208 188.121 256.183C196.372 262.725 206.005 265.195 216.367 264.356C228.865 263.347 239.372 257.853 248.465 249.256C250.809 246.217 253.342 243.3 255.461 240.112C263.103 228.609 265.604 216.112 262.042 202.646C259.935 194.674 255.734 187.999 249.074 182.969C248.343 182.415 246.899 182.3 247.146 180.973C247.324 180.002 247.831 179.044 248.392 178.216C248.672 177.805 249.386 177.523 249.927 177.482C251.172 177.382 251.745 176.663 251.324 175.472C250.92 174.321 249.999 173.861 248.879 173.733Z" fill="black"/>
<path d="M207.243 206.786C206.734 207.438 205.962 207.886 205.258 208.463C205.902 209.764 205.832 210.623 204.848 211.092C204.001 211.492 203.284 211.18 202.78 210.448C202.137 209.511 202.435 208.563 203.633 207.747C202.926 206.327 203.681 205.339 204.755 204.497C205.496 203.917 206.308 203.846 207.046 204.512C207.79 205.188 207.795 206.076 207.243 206.786ZM202.567 203.669C199.492 206.721 199.423 211.74 202.41 214.769C205.491 217.892 210.439 217.863 213.606 214.704C216.769 211.546 216.93 206.734 213.975 203.734C210.775 200.489 205.799 200.46 202.567 203.669Z" fill="black"/>
<path d="M249.191 231.115C243.888 238.639 237.597 244.889 230.148 249.999C227.298 245.726 229.798 238.45 234.527 236.92C234.88 236.806 235.357 236.502 235.434 236.199C236.517 231.921 242.492 228.763 247.873 230.579C248.247 230.706 248.606 230.876 249.191 231.115Z" fill="#F57BA3"/>
<path d="M222.361 259.177C238.186 250.855 250.071 239.024 258.318 223.361C255.652 238.776 239.361 255.818 222.361 259.177Z" fill="white"/>
<path d="M198.171 240.65C201.393 238.665 204.423 236.798 207.578 234.853C209.239 238.062 210.174 241.35 209.405 244.919C208.987 246.862 207.599 247.605 205.694 246.954C202.427 245.836 200.137 243.519 198.171 240.65Z" fill="white"/>
<path d="M233.965 208.633C235.968 205.353 237.822 202.315 239.753 199.151C242.662 201.111 245.029 203.5 246.054 206.956C246.508 208.489 245.918 209.692 244.484 210.141C240.79 211.298 237.407 210.214 233.965 208.633Z" fill="white"/>
<path d="M251.156 228.341C248.796 225.313 246.72 222.689 244.692 220.029C243.743 218.785 244.075 217.745 245.609 217.326C248.62 216.501 251.568 216.888 254.42 218.07C255.295 218.432 255.599 219.167 255.192 220.025C253.903 222.747 252.566 225.446 251.156 228.341Z" fill="white"/>
<path d="M223.943 253.447C222.197 254.347 220.48 255.31 218.692 256.118C217.854 256.497 217.109 256.358 216.967 255.11C216.724 252.977 216.296 250.867 216.041 248.735C215.964 248.102 216.139 247.414 216.312 246.782C216.828 244.896 217.885 244.551 219.414 245.739C221.642 247.471 223.848 249.231 226.094 250.94C226.762 251.448 226.866 251.923 226.17 252.382C225.598 252.76 224.932 252.996 224.308 253.295C224.186 253.346 224.065 253.396 223.943 253.447Z" fill="white"/>
<path d="M230.98 212.724C232.36 214.372 233.109 216.023 233.032 217.957C232.963 219.719 231.697 221.026 229.935 221.167C228.084 221.316 226.385 220.81 224.646 219.732C226.769 217.384 228.811 215.123 230.98 212.724Z" fill="white"/>
<path d="M218.612 225.805C219.913 227.658 220.377 229.493 219.986 231.489C219.736 232.769 218.864 233.602 217.591 233.856C215.346 234.305 213.492 233.388 211.603 232.038C213.973 229.931 216.223 227.93 218.612 225.805Z" fill="white"/>
<path d="M191.697 243.878C193.001 243.269 194.115 242.748 195.206 242.238C196.284 243.358 196.674 245.035 195.938 246.116C195.607 246.602 194.728 247.18 194.3 247.05C192.854 246.612 192.168 245.365 191.697 243.878Z" fill="white"/>
<path d="M245.394 193.611C246.239 194.86 246.404 195.809 245.763 196.52C244.981 197.39 242.668 197.38 241.712 196.504C241.366 196.186 242.014 193.319 242.721 193.149C243.528 192.954 244.496 193.428 245.394 193.611Z" fill="white"/>
<path d="M205.258 208.463C205.902 209.764 205.832 210.623 204.847 211.091C204 211.493 203.282 211.181 202.78 210.45C202.136 209.512 202.435 208.564 203.631 207.747C202.924 206.326 203.681 205.338 204.754 204.498C205.497 203.918 206.309 203.846 207.044 204.512C207.789 205.187 207.796 206.076 207.242 206.785C206.732 207.438 205.961 207.886 205.258 208.463Z" fill="white"/>
<path d="M114.807 285.594L116.408 286.409C116.799 286.608 117.273 286.533 117.584 286.222L118.854 284.952C119.548 284.258 120.725 284.858 120.571 285.827L120.29 287.601C120.221 288.035 120.44 288.463 120.831 288.663L122.431 289.478C123.306 289.923 123.099 291.228 122.13 291.382L120.355 291.663C119.922 291.731 119.582 292.071 119.513 292.505L119.232 294.279C119.078 295.249 117.774 295.455 117.328 294.58L116.513 292.98C116.314 292.589 115.885 292.371 115.452 292.44L113.678 292.721C112.708 292.874 112.109 291.698 112.803 291.003L114.073 289.733C114.384 289.423 114.459 288.948 114.26 288.557L113.444 286.957C112.999 286.082 113.933 285.148 114.807 285.594Z" fill="black"/>
<path d="M286.957 113.444L288.558 114.259C288.949 114.458 289.423 114.383 289.734 114.073L291.004 112.802C291.698 112.108 292.875 112.708 292.721 113.677L292.44 115.451C292.371 115.885 292.59 116.313 292.981 116.513L294.581 117.328C295.456 117.773 295.249 119.078 294.28 119.232L292.505 119.513C292.072 119.581 291.732 119.921 291.663 120.355L291.382 122.129C291.228 123.099 289.924 123.305 289.479 122.431L288.663 120.83C288.464 120.439 288.035 120.221 287.602 120.29L285.828 120.571C284.858 120.724 284.259 119.548 284.953 118.854L286.223 117.583C286.534 117.273 286.609 116.798 286.41 116.407L285.594 114.807C285.149 113.932 286.083 112.998 286.957 113.444Z" fill="black"/>
</svg>
