<svg width="21" height="17" viewBox="0 0 21 17" fill="none" xmlns="http://www.w3.org/2000/svg">
<path d="M17.9316 1.0115C16.6051 0.360247 15.4547 0.287858 13.9675 0.0130478C13.9404 0.00775084 12.9904 -0.0134571 12.9764 0.0130478C12.7935 0.361203 13.1182 0.65451 12.9764 1.0115C11.3768 0.755253 9.58806 0.755253 8.02127 1.0115C7.87935 0.646575 8.20503 0.361203 8.02127 0.0130478C8.00732 -0.0125743 7.05733 0.00863366 7.03024 0.0130478C5.54383 0.286986 4.39341 0.359374 3.06612 1.0115C3.05463 1.0168 3.07266 1.00003 3.06612 1.0115C0.368072 5.32457 -0.269547 9.8365 0.093031 13.9914C0.0782646 13.9792 0.0946761 14.0117 0.093031 13.9914C1.87313 15.3902 3.35587 16.4239 5.04818 16.9868C5.03094 17.0107 5.07527 16.9956 5.04818 16.9868C5.4485 16.4019 6.72428 15.6385 7.03024 14.9899C7.0483 14.9519 6.07612 15.0049 6.03921 14.9899C5.4732 14.7602 5.56663 14.3095 5.04818 13.9914C5.00717 13.9658 5.01045 14.0215 5.04818 13.9914C4.94401 14.0833 5.15728 13.904 5.04818 13.9914C5.02602 13.9808 5.06703 13.9746 5.04818 13.9914C8.45412 15.6553 12.5838 15.6553 15.9495 13.9914C15.9298 13.9747 15.9716 13.98 15.9495 13.9914C15.8396 13.904 16.0537 14.0834 15.9495 13.9914C15.9873 14.0215 15.9905 13.9658 15.9495 13.9914C15.4311 14.3156 15.5254 14.7611 14.9585 14.9899C14.9216 15.0049 13.9494 14.9519 13.9675 14.9899C14.28 15.6376 15.5566 16.4018 15.9495 16.9868C15.9225 16.9956 15.966 17.0115 15.9495 16.9868C17.65 16.4239 19.1245 15.3902 20.9047 13.9914C20.903 14.0118 20.9202 13.9792 20.9047 13.9914C21.3385 9.18798 20.2818 4.71045 17.9316 1.0115C17.9431 1.0168 17.9258 0.999145 17.9316 1.0115ZM7.03024 11.9945C6.00481 11.9945 5.04818 10.2363 5.04818 8.99916C5.04818 7.76209 5.98843 7.00224 7.03024 7.00224C8.08023 7.00224 9.02866 7.77092 9.0123 8.99916C9.0123 10.2363 8.07202 11.9945 7.03024 11.9945ZM13.9675 11.9945C12.942 11.9945 11.9854 10.2363 11.9854 8.99916C11.9854 7.76209 12.9257 7.00224 13.9675 7.00224C15.0175 7.00224 15.9659 7.77092 15.9495 8.99916C15.9495 10.2363 15.0175 11.9945 13.9675 11.9945Z" fill="white"/>
</svg>
