<svg width="75" height="76" viewBox="0 0 75 76" fill="none" xmlns="http://www.w3.org/2000/svg">
<path d="M2.46659 33.4228L0 32.1127L17.0288 0L33.1966 32.1406L30.7021 33.3948L16.9636 6.08279L2.46659 33.4228Z" fill="#FF83D5"/>
<path d="M73.386 34.1629H41.9928V3.0415H44.7852V31.3705H73.386V34.1629Z" fill="#FF83D5"/>
<path d="M32.6709 42.5398H1.23349V45.3322H32.6709V42.5398Z" fill="#FF83D5"/>
<path d="M32.6709 57.6283H1.23349V60.4207H32.6709V57.6283Z" fill="#FF83D5"/>
<path d="M32.6709 72.7166H1.23349V75.509H32.6709V72.7166Z" fill="#FF83D5"/>
<path d="M60.0012 58.8431L74.1934 73.0355L72.2178 75.0088L58.0279 60.8187L42.8468 76.0001L40.8712 74.0268L56.0547 58.8454L41.2318 44.0224L43.2051 42.0491L58.0279 56.8698L72.8484 42.0491L74.8217 44.0224L60.0012 58.8431Z" fill="#FF83D5"/>
</svg>
