<svg width="73" height="60" viewBox="0 0 73 60" fill="none" xmlns="http://www.w3.org/2000/svg">
<path d="M64.1312 34.268C66.1837 35.8822 68.5543 37.0441 71.0874 37.6777L72.0132 33.8769C70.2811 33.4472 68.6462 32.6928 67.1953 31.6537C66.757 31.3524 66.3348 31.0282 65.9306 30.6824C61.882 27.2662 59.4112 22.2593 58.3876 19.7037C62.2852 17.8554 65.9688 15.5862 69.3728 12.9366L66.9932 9.83337C56.5035 17.8718 45.727 21.2162 34.9439 19.7624C16.0377 17.2133 3.24666 0.614939 3.12279 0.445435L1.56465 1.62548L0 2.80545C0.482435 3.45739 10.6396 16.6722 26.8338 21.9073C24.226 26.5882 16.3571 38.2905 0.951825 43.343L2.17095 47.0591C14.4327 42.9877 24.6546 34.3489 30.7128 22.9373C31.9059 23.2046 33.1381 23.4328 34.3898 23.5893C36.2113 23.8363 38.0474 23.9605 39.8856 23.9609C41.5991 23.9608 43.3107 23.8497 45.0099 23.6284C44.8853 25.6361 45.1215 27.6498 45.7074 29.5741C41.7292 30.3047 37.9221 31.7706 34.481 33.8965C20.7447 42.3717 17.4394 58.5658 17.309 59.2438L21.1489 60C21.1489 59.8501 24.2912 44.7838 36.5738 37.1822C39.8517 35.1806 43.495 33.8509 47.2916 33.2705C48.7644 35.8272 50.6986 38.0886 52.9961 39.9399C32.9164 42.3586 29.9435 59.133 29.9175 59.3155L33.7769 59.9675C33.8943 59.2764 36.9323 43.0171 59.2026 43.6038L68.7926 43.8645L60.0696 39.8682C56.7332 38.2391 53.8292 35.8444 51.5944 32.8794C55.817 32.7711 60.0347 33.2382 64.1312 34.268ZM49.606 29.0917C48.9323 27.1279 48.7225 25.0348 48.9932 22.9765C50.9558 22.525 52.8856 21.9412 54.7694 21.2292C55.9563 24.1398 57.5096 26.887 59.3916 29.4046C56.1512 28.9407 52.8695 28.8358 49.606 29.0917Z" fill="white"/>
</svg>
