<svg width="68" height="70" viewBox="0 0 68 70" fill="none" xmlns="http://www.w3.org/2000/svg">
<path d="M60.9034 69.9347C57.4012 69.9347 54.3247 69.8937 51.252 69.9571C50.2228 69.9757 49.8859 69.3158 49.4564 68.6372L34.6479 45.2852C33.5373 43.5514 33.5373 43.5589 32.4933 45.233C27.5991 52.9697 22.6752 60.6841 17.8365 68.4545C17.1183 69.6029 16.3557 70.0354 15.0303 69.9683C12.7535 69.8489 10.4693 69.9683 8.19249 69.9198C7.6816 69.9198 6.9819 70.2293 6.71164 69.6327C6.48581 69.1592 7.04853 68.7565 7.30028 68.3538C11.3973 61.8736 15.5005 55.3958 19.6099 48.9205C19.8357 48.5701 20.0393 48.2046 20.254 47.843C19.6802 47.3545 19.1101 47.5559 18.5918 47.5559C12.9867 47.5372 7.37802 47.4962 1.773 47.5783C0.358785 47.6006 -0.0780715 47.1718 0.0440988 45.7923C0.169973 44.2463 0.169973 42.6925 0.0440988 41.1465C-0.100284 39.4798 0.388398 38.9504 2.13951 38.9653C13.1719 39.051 24.2005 39.0063 35.2329 39.0063C45.2286 39.0063 55.1984 39.0324 65.1794 38.9802C66.5714 38.9802 67.1933 39.2486 67.0675 40.796C66.9342 42.4662 66.9342 44.1444 67.0675 45.8146C67.1785 47.2762 66.601 47.5633 65.2719 47.5484C59.852 47.4776 54.4284 47.5186 49.0048 47.5186H46.7613L60.9034 69.9347Z" fill="white"/>
<path d="M61.1219 0.0241947L47.0538 22.2688H59.2153C61.3736 22.2688 63.5283 22.3173 65.6829 22.2464C66.7417 22.2129 67.0786 22.5857 67.0416 23.6297C66.9712 25.494 66.9453 27.3583 67.0416 29.2226C67.1156 30.5537 66.6269 30.878 65.3645 30.8669C58.4008 30.8109 51.4408 30.8408 44.4808 30.8408C30.3128 30.8408 16.1447 30.8184 1.98034 30.8743C0.477278 30.8743 -0.115058 30.5499 0.0182187 28.9504C0.14225 27.2811 0.14225 25.6048 0.0182187 23.9355C-0.059526 22.6491 0.336603 22.239 1.65086 22.2539C7.37806 22.321 13.1089 22.2837 18.8361 22.28C19.1323 22.28 19.4285 22.2464 20.0764 22.2091L6.05269 0.0540295C9.65856 0.0540295 12.9387 0.0540295 16.2224 0.0540295C16.9629 0.0540295 17.148 0.799737 17.4627 1.29564C22.4852 9.2499 27.5041 17.1942 32.5192 25.1286C32.808 25.5835 33.1301 26.016 33.5854 26.676C35.766 23.2494 37.854 19.9869 39.9272 16.717C43.1665 11.6014 46.4207 6.48952 49.6157 1.34038C50.2006 0.39705 50.8189 -0.0317328 51.9628 0.00182421C54.906 0.080124 57.8418 0.0241947 61.1219 0.0241947Z" fill="white"/>
</svg>
