<svg width="65" height="81" viewBox="0 0 65 81" fill="none" xmlns="http://www.w3.org/2000/svg">
<path d="M30.2283 64.7177C26.0055 64.7177 22.2185 64.6347 18.4314 64.7488C15.9413 64.8214 15.0283 63.7683 15.1165 61.3456C15.2306 58.233 15.0387 55.1204 15.1787 52.0077C15.2721 50.0156 14.4991 49.4657 12.6212 49.5436C9.50853 49.6681 6.39589 49.4606 3.28326 49.611C0.736079 49.7355 -0.0628246 48.6357 -0.000571836 46.2286C0.108371 42.1718 -0.000571836 38.1098 -0.000571836 34.0478C-0.000571836 30.8003 0.388506 30.4164 3.54783 30.4164C6.70716 30.4164 9.77311 30.3645 12.8858 30.4423C14.5458 30.4838 15.2047 29.8976 15.1424 28.1857C15.0387 25.073 15.1009 21.9604 15.1113 18.8478C15.1217 15.7351 15.7027 15.1748 18.7012 15.1489C22.4052 15.1178 26.1093 15.1489 30.1868 15.1489C30.1868 11.2062 30.1868 7.43994 30.1868 3.67365C30.1868 0.701077 30.8405 0.0422353 33.8182 0.0422353C37.882 0.0145674 41.944 0.0145674 46.0042 0.0422353C48.9457 0.0422353 49.5889 0.737377 49.6045 3.75664C49.6045 7.45549 49.6045 11.1544 49.6045 15.2527C53.4746 15.2527 57.08 15.2527 60.6907 15.2527C64.3014 15.2527 64.6956 15.6884 64.7008 19.2835C64.7008 23.3455 64.6489 27.4075 64.7008 31.4695C64.7371 33.6743 63.8189 34.5822 61.5882 34.5458C57.355 34.4628 53.1166 34.5458 48.8834 34.5458C45.6722 34.5458 45.252 34.1256 45.252 30.9871C45.252 27.8485 45.1898 24.5906 45.252 21.3949C45.2831 19.9372 44.7332 19.3976 43.2962 19.4495C41.0499 19.5325 38.7985 19.5481 36.5522 19.4495C34.8195 19.3769 34.2851 20.1499 34.3111 21.7633C34.3681 24.9589 34.254 28.1597 34.3111 31.3554C34.3629 33.6224 33.5537 34.6911 31.1258 34.5873C27.8524 34.4473 24.5581 34.6185 21.2691 34.5406C19.7128 34.5043 19.0851 35.1009 19.1318 36.6521C19.1992 38.9865 19.1837 41.321 19.1318 43.6555C19.1007 45.0925 19.7076 45.6528 21.1446 45.6268C24.3403 45.5698 27.5411 45.6268 30.7367 45.6268C33.9324 45.6268 34.2436 45.9796 34.2644 49.2582C34.2644 52.2827 34.3266 55.3071 34.2644 58.3316C34.2177 60.0383 34.6846 60.8632 36.5937 60.7646C39.338 60.6194 42.0927 60.7283 45.2261 60.7283C45.2261 56.8271 45.2261 53.149 45.2261 49.4658C45.2261 46.0419 45.6307 45.6528 49.1324 45.6476C53.2826 45.6476 57.4328 45.7046 61.583 45.6476C63.7878 45.6061 64.7216 46.4983 64.6956 48.7239C64.6178 53.1283 64.6437 57.5431 64.6956 61.9474C64.6956 63.898 63.8604 64.7903 61.8891 64.7696C58.5222 64.7332 55.145 64.837 51.7834 64.7696C50.0714 64.7281 49.5059 65.3973 49.5526 67.0625C49.646 70.2582 49.5111 73.459 49.5993 76.6546C49.6668 78.9269 48.7278 80.0785 46.4452 80.0785C42.0356 80.0785 37.626 80.0785 33.2217 80.0785C31.1051 80.0785 30.109 79.0721 30.1609 76.857C30.2906 72.8987 30.2283 69.0235 30.2283 64.7177ZM15.1424 40.1486C15.1424 34.5095 15.1424 34.5095 9.63823 34.5251C4.13404 34.5406 4.14442 34.5251 4.14442 39.9411C4.14442 45.5749 4.14442 45.575 9.69011 45.575C15.1372 45.575 15.1372 45.5749 15.1424 40.1486ZM30.0727 49.5903C26.82 49.5903 23.8993 49.528 20.989 49.6421C20.408 49.6421 19.3808 50.3477 19.36 50.7575C19.2252 53.9843 19.2874 57.2214 19.2874 60.4222H30.0727V49.5903ZM30.0727 19.6519C19.3704 18.495 18.7894 18.9671 19.2459 28.1805C19.2459 28.5229 19.1629 28.9535 19.3289 29.218C19.635 29.6642 20.0915 30.323 20.4962 30.3334C23.6555 30.4268 26.82 30.3853 30.0727 30.3853V19.6519ZM49.646 60.5156H60.4521C60.4521 57.2266 60.5299 54.0517 60.3742 50.8924C60.3742 50.4255 59.2796 49.6681 58.6623 49.6317C56.2552 49.4865 53.8377 49.6318 51.4254 49.5643C50.0922 49.5332 49.5786 50.0831 49.5993 51.4008C49.6719 54.3267 49.6356 57.2525 49.6356 60.5156H49.646ZM45.2987 75.7157C45.2987 72.3177 45.3765 69.3088 45.2313 66.3103C45.1377 65.955 44.9545 65.6296 44.6993 65.3653C44.4441 65.101 44.1253 64.9066 43.7735 64.8007C41.1908 64.6399 38.6006 64.6399 36.0178 64.8007C35.6525 64.8996 35.3182 65.0895 35.046 65.3525C34.7739 65.6156 34.5728 65.9433 34.4615 66.3051C34.284 68.8959 34.284 71.4959 34.4615 74.0867C34.503 74.6729 35.5406 75.643 36.1631 75.643C39.0423 75.809 41.963 75.7157 45.2883 75.7157H45.2987ZM60.5247 25.0056C60.5247 19.4028 60.5247 19.4028 54.9012 19.4132C49.6356 19.4132 49.6356 19.4132 49.6305 24.8137C49.6305 30.4164 49.6305 30.4631 55.2176 30.4008C61.1057 30.3593 60.4521 31.4747 60.5247 25.0056ZM45.2676 15.1489C45.2676 11.7976 45.3558 8.79393 45.1846 5.81099C45.1586 5.29222 44.0744 4.43625 43.4259 4.38956C41.1174 4.21317 38.7829 4.38956 36.4588 4.30137C35.0529 4.26506 34.3837 4.82014 34.3837 6.23639C34.4148 8.64349 34.2748 11.061 34.4615 13.4577C34.5734 13.8441 34.7815 14.1958 35.0664 14.4798C35.3513 14.7638 35.7037 14.9708 36.0905 15.0815C39.0164 15.2682 41.9371 15.1748 45.2676 15.1748V15.1489Z" fill="#00B4FF"/>
</svg>
