<svg width="266" height="266" viewBox="0 0 266 266" fill="none" xmlns="http://www.w3.org/2000/svg">
<path d="M199.392 66.4561C236.095 103.159 236.09 162.671 199.38 199.38C162.671 236.09 103.159 236.095 66.4561 199.392C29.7535 162.689 29.7587 103.177 66.4682 66.4679C103.177 29.7587 162.69 29.7534 199.392 66.4561Z" fill="#F7F7F7"/>
<path d="M158.23 84.7712C158.302 84.8238 158.376 84.8747 158.446 84.9253C158.392 84.8627 158.319 84.8103 158.23 84.7712ZM85.0452 157.998C80.9879 157.109 77.4003 155.219 74.3828 152.334C70.4329 148.564 68.3263 143.87 67.6147 138.515C66.9696 133.637 67.5514 128.877 69.1708 124.241C69.3096 123.838 69.4557 123.368 69.7544 123.1C70.0802 122.806 70.6128 122.534 71.0067 122.589C71.3559 122.638 71.7169 123.108 71.9255 123.472C72.101 123.777 72.0853 124.198 72.1202 124.573C72.4595 128.338 73.5982 131.775 76.3625 134.48C79.9418 137.986 84.1593 138.84 88.7808 137.663C90.6592 141.399 93.8518 150.37 86.4284 158.238C85.9641 158.176 85.5038 158.098 85.0452 157.998ZM138.927 80.3583C137.595 75.8735 134.423 73.1857 130.12 71.758C128.733 71.296 127.237 71.1615 125.787 70.8865C125.534 70.8356 125.27 70.8299 125.015 70.7812C124.361 70.6505 123.878 70.3071 123.809 69.6028C123.745 68.926 124.143 68.4852 124.738 68.296C126.503 67.7398 128.251 67.0839 130.058 66.7327C136.775 65.4193 143.298 65.9378 149.259 69.5617C154.807 72.9361 158.062 77.9395 159.42 84.1312C156.519 86.9542 148.731 92.9558 138.839 88.0152C139.59 85.5394 139.707 82.9916 138.927 80.3583ZM148.312 102.503C148.763 103.179 149.217 103.833 149.658 104.465C150.59 105.803 151.472 107.067 152.202 108.37C153.898 111.39 153.775 114.318 151.814 117.321C150.936 118.666 149.871 119.97 148.65 121.191C147.995 121.847 147.277 122.498 146.512 123.127C143.905 125.277 141.623 126.08 139.114 125.733C136.375 125.355 133.896 124.281 131.528 122.447C131.019 122.055 129.669 121.189 128.133 121.659C126.783 122.073 125.627 122.754 124.7 123.681C123.951 124.43 123.36 125.333 122.936 126.373C122.417 127.66 122.559 128.942 123.357 130.185C123.486 130.387 123.615 130.59 123.746 130.791C124.555 132.045 125.318 133.226 125.826 134.437C127.463 138.336 127.18 141.534 124.928 144.499C124.074 145.627 123.163 146.674 122.226 147.611C121.218 148.62 120.141 149.537 119.025 150.337C117.604 151.355 116.442 151.921 115.258 152.176C112.721 152.723 110.332 152.05 107.511 149.998C106.711 149.417 105.937 148.779 105.114 148.104C104.726 147.786 104.335 147.466 103.942 147.15L100.483 147.328C100.284 147.523 100.048 147.755 99.4606 147.578C99.2968 147.398 99.1213 147.215 98.932 147.018C98.6179 146.696 97.9584 146.014 97.6642 145.555C97.8437 145.262 98.0171 144.991 98.181 144.788C100.752 141.632 103.211 138.893 105.694 136.409C109.05 133.054 112.382 130.236 115.886 127.798C116.217 127.567 116.53 127.329 116.834 127.103C118.373 125.942 118.898 125.667 119.661 125.927L122.905 124.489C123.153 123.909 123.487 123.412 123.927 122.971C124.404 122.495 125.024 122.065 125.814 121.661L127.075 118.435C126.989 118.201 126.845 117.814 127.529 116.907C128.013 116.267 128.497 115.624 128.979 114.982C130.988 112.305 133.064 109.539 135.267 107.02C136.289 105.853 137.374 104.694 138.488 103.58C140.595 101.473 142.891 99.4423 145.316 97.5401C145.398 97.5166 145.482 97.4994 145.574 97.4856C145.983 97.419 146.492 97.4524 147.16 97.7098C147.636 97.8931 148.191 98.1914 148.847 98.652C148.896 98.8528 148.822 99.0088 148.568 99.2819L148.312 102.503ZM133.899 136.461C133.382 135.507 133.542 134.232 134.361 133.412L134.369 133.405C134.781 132.997 135.28 132.731 135.807 132.638C135.955 132.61 136.105 132.597 136.256 132.599C136.946 132.603 137.615 132.897 138.138 133.428C139.067 134.368 138.969 135.874 137.913 136.929C137.393 137.446 136.725 137.731 136.033 137.729C135.375 137.727 134.755 137.462 134.287 136.986C134.129 136.828 134 136.652 133.899 136.461ZM164.956 153.947C164.402 154.786 163.797 155.594 163.157 156.409C163.151 156.419 163.143 156.431 163.131 156.443C162.757 156.922 162.372 157.404 161.978 157.896C161.53 158.454 161.069 159.031 160.617 159.613C154.74 165.122 148.435 168.076 141.35 168.65C134.965 169.164 129.366 167.553 124.704 163.859C123.592 162.977 122.603 161.781 121.556 160.519C121.3 160.209 121.043 159.901 120.782 159.593C120.747 159.55 120.707 159.507 120.67 159.466C121.181 159.298 121.694 159.125 122.202 158.949C127.044 157.279 131.679 154.688 137.23 150.546C140.047 148.442 142.704 146.144 145.134 143.713C148.438 140.41 151.423 136.758 154.004 132.858C156.757 128.701 158.963 124.279 160.589 119.676C160.819 119.833 161.08 119.984 161.377 120.121C161.406 120.135 161.435 120.148 161.465 120.162C165.202 123.014 167.64 126.739 168.912 131.554C170.728 138.411 169.997 144.825 166.671 151.074C166.626 151.161 166.579 151.251 166.532 151.337C166.058 152.209 165.533 153.081 164.956 153.947ZM165.938 89.3744C164.799 89.3471 163.67 89.3999 162.558 89.5327C162.552 88.8673 162.537 88.3916 162.537 88.3796L162.517 87.9975C162.464 86.9964 162.41 85.9628 162.223 84.8861C160.85 77.0908 156.943 71.186 150.612 67.3357C144.607 63.6844 137.522 62.62 129.561 64.1753C128.035 64.472 126.603 64.9442 125.218 65.4008C124.797 65.5414 124.377 65.6799 123.958 65.8106C123.304 66.0157 122.743 66.3512 122.286 66.8077C121.484 67.6095 121.106 68.6902 121.217 69.8509C121.388 71.6339 122.65 72.97 124.509 73.3347C124.753 73.3835 124.964 73.4069 125.136 73.4265C125.192 73.4322 125.251 73.4361 125.298 73.4439C125.777 73.5336 126.249 73.6116 126.708 73.6835C127.646 73.8339 128.534 73.9763 129.299 74.2297C133.099 75.4936 135.431 77.7404 136.43 81.0996C137.105 83.3781 136.972 85.723 136.014 88.2299C135.815 87.8358 135.583 87.5257 135.401 87.317C134.894 86.7357 132.994 84.9607 129.843 86.5859C129.752 86.6347 129.66 86.6874 129.572 86.7401L129.526 86.7675C128.591 87.3041 127.706 87.9867 126.896 88.7964C126.584 89.1087 126.289 89.4345 126.006 89.7718C125.959 88.7926 125.632 87.7352 124.809 87.0175C123.453 85.8335 121.545 86.0519 120.995 86.1456C119.867 86.3411 119.017 86.9888 118.455 87.4182L118.433 87.4317C117.782 87.931 117.157 88.4736 116.578 89.053C115.105 90.526 113.884 92.235 112.883 94.2268C112.9 94.1624 112.914 94.098 112.928 94.0335C113.587 91.0253 111.683 89.8627 111.09 89.5821C109.99 89.0554 108.555 88.9892 107.439 89.4106C106.623 89.719 105.819 90.2613 105.056 91.0243C104.994 91.0866 104.933 91.1511 104.877 91.2074C100.846 95.4374 98.7428 100.498 98.6234 106.254C98.6118 106.91 98.629 107.552 98.6759 108.18C98.553 107.92 98.4146 107.657 98.2565 107.394C97.6403 106.372 96.3545 105.34 94.8779 105.33C93.8928 105.321 92.8374 105.783 92.057 106.564C91.7059 106.915 91.4385 107.307 91.265 107.73C90.6892 109.137 90.3732 110.323 90.2699 111.476C89.8419 116.288 91.2187 120.611 94.0589 123.853C91.9931 124.272 90.253 125.178 88.8697 126.561C88.3099 127.121 87.8064 127.765 87.3711 128.473C86.1674 130.441 86.4054 132.747 87.9619 134.21C88.2662 134.495 88.6095 134.725 88.9762 134.901C88.9548 134.906 88.9352 134.915 88.9159 134.918C84.5633 136.259 81.1536 135.526 78.1846 132.619C76.1461 130.62 75.0425 127.99 74.7129 124.333C74.7092 124.278 74.7072 124.225 74.7014 124.169C74.6741 123.709 74.6275 122.94 74.1883 122.181C73.6852 121.299 72.7881 120.207 71.3679 120.008C69.7117 119.776 68.385 120.83 68.0104 121.165C67.9637 121.204 67.9188 121.249 67.874 121.294C67.1929 121.975 66.9158 122.783 66.7306 123.319L66.7089 123.383C64.9158 128.52 64.3514 133.727 65.0317 138.859C65.8546 145.055 68.3959 150.222 72.584 154.219C75.9332 157.42 79.9378 159.548 84.4871 160.542C85.9542 160.862 87.3958 160.977 88.7926 161.086C89.3309 161.129 89.84 161.17 90.3609 161.222C90.4115 161.227 90.5012 161.23 90.6223 161.234C90.6027 161.414 90.5813 161.591 90.5638 161.773C90.4092 163.382 90.5087 165.155 90.8755 167.356C91.1192 168.805 92.0474 169.917 93.3544 170.334C94.681 170.759 96.1635 170.361 97.2268 169.298C97.34 169.185 97.4514 169.062 97.5507 168.939C98.0735 168.295 98.4035 167.587 98.614 167.127C98.7252 166.895 98.8347 166.668 98.9477 166.446C98.8381 170.227 99.903 173.941 102.138 177.557C102.774 178.583 103.576 179.553 104.454 180.361C106.065 181.851 108.386 181.866 109.85 180.403C110.462 179.79 110.87 178.977 111.02 178.058C111.034 177.99 111.044 177.921 111.054 177.853C113.741 183.596 118.729 188.182 124.877 190.023C126.29 190.444 127.909 190.635 129.559 190.573C130.652 190.533 131.643 190.12 132.351 189.411C133.293 188.469 133.633 187.15 133.35 185.853C135.373 187.4 137.624 188.496 140.082 189.12C140.956 189.343 141.937 189.43 142.922 189.377C143.753 189.331 144.602 188.931 145.25 188.283C145.634 187.898 145.909 187.463 146.069 186.992C146.235 186.502 146.256 186.008 146.186 185.544C148.197 186.306 150.404 186.706 152.793 186.739C153.628 186.751 154.454 186.616 155.177 186.353C155.714 186.156 156.178 185.863 156.559 185.482C157.242 184.8 157.598 183.865 157.538 182.919C157.526 182.736 157.501 182.558 157.46 182.385C158.447 182.595 159.46 182.738 160.499 182.81C162.216 182.93 163.853 182.729 165.435 182.532C165.62 182.511 165.806 182.485 165.991 182.464C166.76 182.37 167.526 181.978 168.149 181.356C168.492 181.012 168.945 180.442 169.159 179.689C169.352 179.009 169.294 178.338 168.986 177.682C170.568 177.969 172.201 178.095 173.88 178.062C174.973 178.043 176.561 177.879 177.733 176.706C178.859 175.58 179.07 174.082 179.128 172.904L179.13 172.886C179.134 172.734 179.138 172.582 179.138 172.445C179.15 170.881 179.025 169.363 178.77 167.898C179.096 168.052 179.445 168.152 179.806 168.189C180.777 168.29 181.747 167.937 182.467 167.217C182.728 166.956 182.956 166.645 183.146 166.3C183.637 165.41 183.809 164.494 183.865 163.887C184.116 161.241 183.975 158.725 183.451 156.355C183.821 156.452 184.218 156.486 184.623 156.423L184.646 156.419C185.374 156.304 186.118 155.916 186.679 155.354C187.103 154.93 187.392 154.447 187.542 153.922C187.813 152.987 187.93 152.012 187.881 151.101C187.761 148.908 187.326 146.87 186.583 144.991C187.275 145.11 188.028 145.036 188.727 144.583C188.928 144.453 189.119 144.297 189.292 144.123C190.123 143.292 190.43 142.209 190.535 141.639C190.719 140.68 190.475 139.862 190.315 139.32L190.276 139.184C189.523 136.495 188.384 134.131 186.867 132.099C187.411 132.229 188.002 132.274 188.601 132.178C189.368 132.055 190.058 131.704 190.597 131.166C191.371 130.391 191.787 129.269 191.768 128.005C191.754 127.141 191.723 126.217 191.514 125.255C190.046 118.546 185.171 112.903 178.993 109.948C179.618 109.889 180.681 109.688 181.512 108.857C182.037 108.333 182.369 107.658 182.47 106.904C182.673 105.383 181.979 104.088 181.672 103.606C181.087 102.677 180.245 102.049 179.665 101.657C175.704 98.9829 171.615 97.7269 167.44 97.8913C167.859 97.6631 168.293 97.4405 168.741 97.2104L169.246 96.9509C169.684 96.7244 170.068 96.4495 170.388 96.1297C171.245 95.273 171.63 94.1376 171.482 92.9321C171.268 91.2075 169.979 89.9416 168.116 89.6238C167.404 89.5049 166.7 89.3936 165.938 89.3744Z" fill="black"/>
<path d="M158.23 84.7712C158.302 84.8239 158.376 84.8747 158.446 84.9253C158.392 84.8627 158.319 84.8103 158.23 84.7712ZM150.919 96.9429C150.952 96.9992 150.984 97.054 151.012 97.1106C151.791 98.5793 151.535 99.9158 150.478 101.055C151.874 103.146 153.318 105.035 154.473 107.09C156.682 111.025 156.469 114.952 153.997 118.743C152.401 121.189 150.413 123.29 148.17 125.136C145.448 127.381 142.415 128.823 138.757 128.315C135.47 127.86 132.554 126.536 129.934 124.509C129.651 124.293 129.183 124.062 128.898 124.148C127.238 124.658 126.019 125.709 125.353 127.346C125.141 127.871 125.224 128.275 125.55 128.78C126.516 130.288 127.542 131.79 128.228 133.428C130.073 137.822 130.007 142.117 127.004 146.075C125.156 148.508 123.034 150.67 120.542 152.455C119.097 153.491 117.563 154.346 115.804 154.724C112.081 155.524 108.906 154.233 105.978 152.105C104.725 151.193 103.549 150.172 102.312 149.181C101.007 150.471 99.4192 150.514 97.8588 149.726C97.8705 149.746 97.8801 149.763 97.8901 149.781C97.7672 149.709 97.576 149.591 97.3439 149.441C97.5155 149.547 97.6851 149.642 97.8588 149.726C97.1744 148.714 93.8034 146.264 95.3389 144.365C95.5945 143.946 95.8541 143.523 96.1621 143.144C101.522 136.568 107.406 130.528 114.396 125.659C116.218 124.391 117.913 122.571 120.508 123.464C121.347 121.506 122.816 120.267 124.632 119.34C124.07 117.83 124.58 116.49 125.452 115.337C128.013 111.952 130.515 108.499 133.307 105.305C136.543 101.604 140.151 98.2469 144.052 95.2228C146.63 94.1868 149.019 95.4837 150.919 96.9429C150.89 96.8939 150.86 96.8453 150.829 96.7945C151.026 96.9721 151.221 97.1552 151.463 97.374C151.286 97.2274 151.104 97.085 150.919 96.9429ZM132.432 138.814C130.475 136.834 130.522 133.553 132.532 131.555C134.647 129.456 137.901 129.475 139.995 131.598C141.926 133.56 141.821 136.708 139.753 138.772C137.683 140.839 134.447 140.856 132.432 138.814ZM164.421 113.114C164.696 113.892 164.321 114.364 163.508 114.429C163.153 114.456 162.686 114.641 162.505 114.909C162.138 115.451 161.805 116.077 161.688 116.713C161.528 117.579 162.474 117.655 162.95 118.018C167.306 121.309 170.052 125.674 171.432 130.887C173.761 139.692 172.125 147.866 167.127 155.389C165.742 157.476 164.085 159.383 162.552 161.368C156.603 166.993 149.732 170.587 141.558 171.247C134.782 171.794 128.482 170.177 123.085 165.9C121.458 164.608 120.155 162.884 118.798 161.28C118.296 160.689 117.943 160.395 117.173 160.771C116.285 161.207 115.356 161.449 115.452 162.801C115.504 163.528 114.342 163.778 113.645 163.242C112.773 162.568 112.645 161.187 113.341 160.093C113.954 159.133 114.888 158.636 115.92 158.286C117.727 157.674 119.551 157.11 121.353 156.485C126.607 154.673 131.256 151.752 135.671 148.457C142.027 143.712 147.443 138.05 151.831 131.423C154.997 126.637 157.419 121.508 159.042 116.003C159.271 115.229 159.546 114.462 159.889 113.732C160.455 112.531 161.649 111.844 162.822 111.978C163.555 112.06 164.158 112.362 164.421 113.114ZM167.682 92.1951C167.085 92.0937 166.479 91.9941 165.876 91.9806C163.767 91.9281 161.752 92.18 159.823 92.7284C159.971 92.2759 159.96 88.9751 159.934 88.5205C159.878 87.4571 159.841 86.3824 159.658 85.3368C159.585 84.9291 159.505 84.5293 159.42 84.1313C156.519 86.9542 148.731 92.9558 138.839 88.0153C138.564 88.9261 138.203 89.8255 137.769 90.7189C137.66 90.9453 136.624 93.6627 136.085 95.079L136.083 95.0811C135.99 95.3192 135.916 95.518 135.857 95.6625C135.885 95.596 135.914 95.5123 135.951 95.4165C135.963 95.3855 135.974 95.3503 135.986 95.3153C136.015 95.2431 136.044 95.1669 136.078 95.079C134.281 95.3309 132.582 96.0238 131.021 97.4363C131.037 96.8667 131.021 96.5036 131.066 96.1468C131.293 94.3011 132.252 92.7989 133.302 91.3241C133.997 90.3525 133.989 89.6621 133.437 89.028C132.891 88.3997 132.097 88.3549 131.051 88.8937C130.973 88.9367 130.901 88.9813 130.825 89.0264C126.722 91.3852 124.207 97.1383 125.262 101.752C125.32 102.017 125.336 102.29 125.373 102.557L125.172 102.723C124.881 102.538 124.546 102.402 124.314 102.162C122.306 100.123 121.967 97.5636 122.292 94.9068C122.473 93.43 123.064 92.0079 123.359 90.5389C123.462 90.0373 123.41 89.2553 123.096 88.9804C122.731 88.6623 121.976 88.6214 121.437 88.7151C120.928 88.803 120.445 89.1773 120.011 89.5052C117.206 91.6435 115.39 94.5055 114.193 97.7654C113.183 100.524 112.784 103.368 113.442 106.296C113.488 106.515 113.371 106.772 113.332 107.01C113.085 106.962 112.79 106.983 112.603 106.85C112.182 106.554 111.77 106.22 111.43 105.834C109.661 103.819 109.061 101.381 109.285 98.8073C109.441 97.0128 109.99 95.2475 110.384 93.4759C110.519 92.8653 110.544 92.2077 109.965 91.9329C109.508 91.7143 108.827 91.6695 108.357 91.8511C107.762 92.0716 107.21 92.5341 106.761 93.0062C103.216 96.7265 101.336 101.182 101.228 106.307C101.163 109.551 101.932 112.618 103.983 115.259C104.303 115.669 105.146 115.973 104.682 116.644C104.229 117.299 103.509 116.829 102.914 116.699C102.556 116.621 102.206 116.451 101.869 116.289C99.5885 115.199 98.1137 113.357 97.0821 111.112C96.7232 110.324 96.4695 109.478 96.0267 108.742C95.7946 108.358 95.2584 107.938 94.8543 107.937C94.4506 107.931 93.8321 108.339 93.674 108.719C93.2858 109.669 92.956 110.689 92.8665 111.704C92.3508 117.513 94.8822 122.8 100.506 125.481C100.781 125.616 100.974 125.918 101.205 126.145C100.867 126.306 100.535 126.583 100.192 126.603C99.6517 126.633 99.1037 126.474 98.5572 126.412C97.8123 126.33 97.0593 126.17 96.3139 126.202C93.499 126.321 91.1267 127.331 89.593 129.833C89.0155 130.777 89.1072 131.711 89.7451 132.31C90.3127 132.842 91.2725 132.831 92.1641 132.294C92.9054 131.845 93.6253 131.344 94.4076 130.983C95.5566 130.454 96.7582 130.052 98.1453 130.242C98.0107 130.474 97.9366 130.626 97.8411 130.764C96.8869 132.167 96.29 133.611 96.0439 135.101C94.9786 135.561 90.9072 137.035 89.6824 137.409C89.3798 137.501 89.0796 137.587 88.7809 137.663C90.6593 141.399 93.8519 150.37 86.4285 158.238C87.8075 158.427 89.218 158.488 90.609 158.63C90.7493 158.642 93.1897 158.647 93.7828 158.608C93.4804 159.707 93.2716 160.848 93.1583 162.022C93.0001 163.636 93.1755 165.317 93.4445 166.924C93.6377 168.066 94.7848 168.218 95.528 167.299C95.8324 166.924 96.0508 166.468 96.2558 166.021C97.4595 163.448 99.0341 161.148 101.274 159.36C102.085 158.709 102.989 158.169 103.88 157.558C103.988 157.798 104.044 157.862 104.028 157.897C103.913 158.161 103.792 158.418 103.663 158.676C100.676 164.639 100.834 170.49 104.355 176.184C104.866 177.011 105.507 177.789 106.221 178.449C107.15 179.303 108.246 178.87 108.451 177.623C108.543 177.087 108.506 176.527 108.496 175.979C108.453 173.63 108.838 171.361 109.804 169.217C110.196 168.345 110.725 167.531 111.191 166.695C111.287 166.724 111.378 166.757 111.474 166.786C111.48 167.116 111.501 167.446 111.495 167.775C111.293 176.649 117.237 185.016 125.625 187.528C126.844 187.892 128.19 188.017 129.466 187.97C130.8 187.919 131.231 186.747 130.465 185.66C130.081 185.116 129.657 184.599 129.312 184.032C127.6 181.215 126.831 178.191 127.464 174.902C127.54 174.502 127.77 174.132 127.926 173.749C128.018 173.767 128.108 173.786 128.199 173.808C128.303 174.063 128.42 174.321 128.509 174.582C129.309 176.997 130.489 179.199 132.151 181.135C134.456 183.822 137.271 185.716 140.72 186.594C141.382 186.763 142.093 186.812 142.773 186.777C143.075 186.76 143.506 186.438 143.601 186.158C143.685 185.903 143.473 185.452 143.256 185.213C142.681 184.563 141.994 184.013 141.425 183.361C140.12 181.869 139.262 180.149 139.071 178.151C139.028 177.706 139.164 177.242 139.219 176.789C139.305 176.778 139.393 176.764 139.48 176.754C139.677 176.986 139.894 177.207 140.07 177.456C143.179 181.877 147.459 184.061 152.835 184.135C153.317 184.141 153.83 184.072 154.28 183.906C155.069 183.618 155.162 182.88 154.499 182.369C154.158 182.106 153.757 181.921 153.379 181.706C151.185 180.456 149.575 178.706 148.803 176.264C148.678 175.87 148.725 175.421 148.675 174.754C149.115 175.031 149.328 175.115 149.482 175.265C152.623 178.257 156.388 179.911 160.683 180.211C162.333 180.328 164.023 180.078 165.679 179.877C166.054 179.83 166.547 179.352 166.653 178.978C166.723 178.732 166.247 178.26 165.927 177.991C165.603 177.722 165.166 177.585 164.786 177.38C162.379 176.073 160.471 174.275 159.34 171.747C159.147 171.316 159.111 170.809 159.004 170.338C159.092 170.297 159.182 170.255 159.27 170.213C159.516 170.385 159.771 170.547 160.007 170.736C164.045 173.982 168.656 175.558 173.832 175.458C175.845 175.419 176.426 174.794 176.526 172.775C176.532 172.66 176.532 172.543 176.534 172.428C176.56 168.618 175.723 165.019 173.786 161.72C173.16 160.653 172.39 159.672 171.707 158.635C171.584 158.446 171.574 158.178 171.514 157.95C171.728 157.926 171.953 157.854 172.16 157.885C172.409 157.924 172.657 158.031 172.893 158.139C175.431 159.264 177.222 161.172 178.565 163.55C178.85 164.053 179.075 164.589 179.39 165.073C179.849 165.782 180.457 165.781 180.865 165.042C181.096 164.624 181.228 164.121 181.271 163.645C181.812 157.923 180.375 152.815 176.557 148.439C176.372 148.227 176.265 147.948 175.997 147.485C176.61 147.552 177.016 147.497 177.319 147.647C178.325 148.143 179.345 148.64 180.268 149.266C181.744 150.27 182.585 151.818 183.469 153.314C183.621 153.571 184.009 153.881 184.241 153.848C184.544 153.8 184.959 153.481 185.041 153.2C185.223 152.574 185.314 151.893 185.279 151.246C184.993 146.027 182.681 141.913 178.451 138.865C178.234 138.71 178.049 138.51 177.637 138.137C178.244 138.038 178.62 137.86 178.921 137.946C180.277 138.326 181.718 138.585 182.914 139.266C184.112 139.953 185.034 141.113 186.125 142.005C186.441 142.262 187.082 142.545 187.305 142.401C187.656 142.17 187.888 141.614 187.976 141.156C188.05 140.762 187.884 140.303 187.768 139.886C185.977 133.499 181.807 129.403 175.6 127.273C175.354 127.187 175.12 127.075 174.673 126.885C175.087 126.678 175.272 126.517 175.471 126.497C176.731 126.368 178.007 126.103 179.253 126.202C181.965 126.416 184.376 127.497 186.555 129.141C186.986 129.467 187.675 129.687 188.19 129.606C188.927 129.488 189.173 128.755 189.163 128.047C189.152 127.302 189.126 126.539 188.968 125.811C187.026 116.943 178.116 110.081 168.908 110.339C168.592 110.347 168.276 110.312 167.958 110.295C168.188 109.881 168.45 109.662 168.734 109.483C170.771 108.215 173.023 107.621 175.393 107.467C176.431 107.397 177.476 107.412 178.514 107.369C179.111 107.342 179.798 107.221 179.887 106.558C179.954 106.054 179.749 105.436 179.468 104.995C179.171 104.523 178.682 104.139 178.208 103.817C172.254 99.7986 166.064 99.4345 159.66 102.687C159.397 102.821 159.129 102.949 158.864 103.081C158.802 103.023 158.737 102.966 158.675 102.904C158.901 102.463 159.104 102.006 159.364 101.583C160.862 99.1523 163.012 97.4275 165.447 96.0188C166.297 95.527 167.179 95.0862 168.055 94.6354C168.621 94.3427 168.976 93.9018 168.896 93.2524C168.814 92.5774 168.289 92.2983 167.682 92.1951Z" fill="white"/>
<path d="M122.373 66.8945C121.598 67.6687 121.231 68.7142 121.337 69.8383C121.505 71.5634 122.727 72.856 124.528 73.2158L124.538 73.2181L124.549 73.2199C124.774 73.263 124.97 73.2838 125.128 73.3008C125.19 73.3075 125.274 73.3167 125.303 73.3216L125.315 73.3242L125.324 73.3258C125.795 73.4152 126.26 73.4892 126.71 73.5607C127.66 73.7119 128.557 73.8544 129.335 74.1136C133.178 75.3885 135.536 77.6622 136.547 81.0657C137.147 83.0915 137.12 85.1296 136.463 87.2945L135.854 89.3001L137.729 90.2363C142.63 92.6843 147.623 93.0518 152.567 91.3291C156.45 89.9761 159.378 87.6357 161.151 85.9105L162.141 84.9476L161.845 83.5992C160.286 76.4873 156.486 71.0509 150.55 67.4403C147.4 65.525 143.939 64.312 140.263 63.8334C136.949 63.4026 133.356 63.5581 129.582 64.296C128.067 64.5906 126.639 65.061 125.259 65.516C124.837 65.6554 124.415 65.7944 123.993 65.9278C123.355 66.1305 122.812 66.455 122.373 66.8945ZM158.446 84.9253C158.392 84.8629 158.319 84.81 158.23 84.7712C158.302 84.8238 158.376 84.8744 158.446 84.9253ZM124.128 68.65C124.287 68.4911 124.496 68.3727 124.738 68.2957C126.504 67.7398 128.251 67.0841 130.058 66.7329C136.774 65.4193 143.298 65.9375 149.259 69.5617C154.807 72.9361 158.062 77.9395 159.42 84.1312C156.519 86.9544 148.731 92.9555 138.839 88.015C139.59 85.5396 139.707 82.9919 138.927 80.3583C137.595 75.8735 134.423 73.1857 130.12 71.758C128.733 71.296 127.237 71.1613 125.787 70.8862C125.534 70.8356 125.27 70.8299 125.015 70.7812C124.361 70.6503 123.878 70.3073 123.809 69.6031C123.771 69.2009 123.896 68.8822 124.128 68.65Z" fill="black"/>
<path d="M86.263 159.468C85.739 159.398 85.2544 159.314 84.7818 159.212C80.4751 158.268 76.6885 156.256 73.5247 153.232C69.568 149.454 67.1654 144.558 66.384 138.679C65.7331 133.756 66.2763 128.762 67.9988 123.832L68.022 123.764C68.1725 123.323 68.3786 122.718 68.8369 122.26C68.8662 122.231 68.8956 122.202 68.9262 122.175C69.4465 121.705 70.3151 121.24 71.1769 121.359C72.0486 121.481 72.651 122.241 73.0034 122.856C73.2842 123.343 73.3176 123.868 73.3415 124.25C73.346 124.32 73.3504 124.389 73.3564 124.457C73.7168 128.457 74.9479 131.358 77.2307 133.593C80.3557 136.653 84.0333 137.591 88.4748 136.46L89.4417 136.213L89.89 137.105C91.7908 140.885 95.3466 150.595 87.3311 159.09L86.8942 159.553L86.263 159.468Z" fill="white"/>
<path d="M67.9592 121.382C67.2966 122.045 67.0261 122.839 66.8471 123.364L66.8242 123.43C65.0391 128.543 64.4771 133.728 65.1535 138.841C65.973 145.009 68.5013 150.153 72.6682 154.13C75.9974 157.313 79.9829 159.431 84.5134 160.424C85.0238 160.535 85.5403 160.624 86.0971 160.699L87.3598 160.869L88.2344 159.942C91.9237 156.032 93.7204 151.452 93.5748 146.33C93.4586 142.247 92.1101 138.757 90.9992 136.547L90.1029 134.764L88.1686 135.257C84.1825 136.272 80.8888 135.437 78.0997 132.706C76.0394 130.689 74.9254 128.034 74.5934 124.35C74.5874 124.286 74.5843 124.229 74.5806 124.172C74.5522 123.724 74.5051 122.975 74.0764 122.232C73.5902 121.382 72.7186 120.321 71.3504 120.13C69.7306 119.905 68.4449 120.937 68.0894 121.259C68.0508 121.293 68.0046 121.337 67.9592 121.382ZM69.7147 123.138C69.7275 123.125 69.7408 123.112 69.7541 123.1C70.0801 122.805 70.6125 122.534 71.0066 122.589C71.3559 122.638 71.7168 123.108 71.9254 123.473C72.1012 123.777 72.0853 124.198 72.1204 124.573C72.4595 128.338 73.5984 131.775 76.3625 134.481C79.942 137.986 84.1596 138.84 88.781 137.663C90.6594 141.399 93.852 150.37 86.4284 158.238C85.9643 158.176 85.5037 158.098 85.0455 157.998C80.9878 157.109 77.4006 155.219 74.383 152.334C70.4328 148.564 68.3263 143.87 67.615 138.515C66.9696 133.636 67.5514 128.876 69.171 124.241C69.303 123.856 69.4426 123.41 69.7147 123.138Z" fill="black"/>
<path d="M146.968 99.297C146.484 99.7636 145.745 99.7786 145.335 99.329C144.895 98.8501 144.939 98.0887 145.436 97.6049C145.937 97.1158 146.621 97.1024 147.054 97.5726C147.489 98.0442 147.451 98.8314 146.968 99.297ZM149.731 118.356C151.975 114.929 152.39 111.544 150.556 107.857C153.42 110.507 153.021 115.793 149.731 118.356ZM146.427 121.744C144.087 124.477 140.91 125.527 138.122 124.668C134.777 123.636 131.973 121.761 129.695 119.112C128.791 118.061 128.748 116.817 129.478 115.724C130.598 114.049 131.866 112.469 133.117 110.883C133.592 110.284 134.194 109.787 134.894 109.086C134.932 109.817 134.98 110.356 134.983 110.897C135 114.021 135.003 117.144 135.013 120.268C135.014 120.442 135.009 120.616 135.026 120.788C135.084 121.337 135.08 121.984 135.859 121.965C136.603 121.947 136.893 121.454 136.89 120.736C136.881 118.712 136.881 116.688 136.886 114.664C136.892 112.379 136.934 110.094 136.911 107.809C136.897 106.374 138.148 105.901 138.827 104.994C138.932 105.007 139.037 105.02 139.142 105.033C139.139 111.265 139.136 117.496 139.134 123.874C141.813 124.523 144.071 123.201 146.427 121.744ZM122.69 145.562C125.51 141.988 126.094 138.121 124.243 133.929C126.805 137.124 127.072 141.619 122.69 145.562ZM111.596 149.676C111.589 150.267 111.879 150.36 112.273 150.462C114.337 150.992 116.221 150.437 118.034 149.484C118.435 149.271 118.827 149.037 119.223 148.812C116.599 151.535 113.452 152.371 110.081 150.458C107.68 149.097 105.607 147.372 103.838 145.279C102.656 143.881 102.47 142.309 103.508 140.881C104.609 139.359 105.936 137.998 107.165 136.567C107.259 136.612 107.352 136.656 107.447 136.699C107.477 136.997 107.534 137.297 107.536 137.594C107.556 140.2 107.564 142.805 107.58 145.41C107.583 145.814 107.528 146.25 107.661 146.613C107.779 146.94 108.174 147.456 108.346 147.419C108.727 147.336 109.093 147.001 109.368 146.685C109.507 146.526 109.455 146.185 109.455 145.927C109.465 142.598 109.569 139.265 109.43 135.943C109.358 134.235 110.323 133.405 111.584 132.365C111.616 133.212 111.669 133.891 111.667 134.569C111.657 139.604 111.655 144.641 111.596 149.676ZM100.288 145.991C99.7935 146.415 99.2346 146.48 98.726 146.026C98.2766 145.626 98.3307 144.729 98.7814 144.303C99.3159 143.857 99.8389 143.896 100.319 144.374C100.781 144.831 100.772 145.579 100.288 145.991ZM144.053 95.2223C140.152 98.2462 136.543 101.604 133.306 105.306C130.514 108.498 128.014 111.951 125.452 115.336C124.58 116.49 124.071 117.829 124.633 119.341C122.815 120.267 121.347 121.504 120.509 123.464C117.913 122.57 116.217 124.392 114.397 125.659C107.407 130.527 101.522 136.567 96.162 143.143C95.8537 143.522 95.5947 143.946 95.338 144.365C93.8049 146.263 97.1749 148.715 97.8587 149.728C99.4197 150.512 101.008 150.469 102.312 149.182C103.549 150.173 104.725 151.192 105.979 152.105C108.907 154.234 112.081 155.524 115.804 154.725C117.564 154.345 119.097 153.49 120.542 152.455C123.033 150.669 125.157 148.508 127.004 146.074C130.006 142.116 130.073 137.82 128.227 133.428C127.541 131.79 126.514 130.287 125.55 128.78C125.225 128.273 125.141 127.871 125.353 127.347C126.019 125.709 127.238 124.659 128.897 124.149C129.184 124.062 129.653 124.292 129.934 124.51C132.552 126.536 135.47 127.86 138.757 128.314C142.414 128.822 145.449 127.381 148.171 125.136C150.413 123.288 152.402 121.189 153.997 118.744C156.47 114.952 156.684 111.025 154.472 107.091C153.318 105.036 151.874 103.145 150.477 101.054C151.534 99.9155 151.79 98.5793 151.011 97.1106C150.983 97.0553 150.951 96.9987 150.919 96.9424C149.018 95.4835 146.629 94.1879 144.053 95.2223Z" fill="black"/>
<path d="M160.785 126.88C160.272 127.449 158.761 127.442 158.136 126.869C157.908 126.662 158.332 124.786 158.795 124.675C159.322 124.548 159.956 124.857 160.543 124.977C161.094 125.794 161.202 126.416 160.785 126.88ZM160.974 133.705C161.272 134.707 160.885 135.494 159.948 135.788C157.532 136.546 155.319 135.836 153.069 134.802C154.377 132.657 155.591 130.669 156.853 128.601C158.756 129.882 160.304 131.445 160.974 133.705ZM166.951 142.253C166.107 144.033 165.234 145.798 164.31 147.692C162.768 145.712 161.409 143.995 160.083 142.256C159.463 141.442 159.681 140.763 160.684 140.487C162.653 139.947 164.581 140.2 166.445 140.974C167.018 141.211 167.216 141.691 166.951 142.253ZM145.478 167.857C155.828 162.414 163.602 154.677 168.994 144.434C167.252 154.515 156.597 165.661 145.478 167.857ZM141.95 165.198C141.793 163.803 141.513 162.423 141.345 161.029C141.295 160.615 141.409 160.164 141.522 159.752C141.86 158.517 142.551 158.292 143.551 159.069C145.009 160.202 146.452 161.353 147.92 162.47C148.356 162.803 148.424 163.114 147.969 163.413C147.596 163.662 147.16 163.815 146.752 164.012C146.672 164.045 146.593 164.078 146.513 164.111C145.372 164.7 144.248 165.33 143.079 165.858C142.531 166.106 142.043 166.014 141.95 165.198ZM134.579 159.864C132.441 159.133 130.944 157.617 129.659 155.742C131.765 154.443 133.747 153.222 135.811 151.95C136.897 154.049 137.509 156.2 137.005 158.534C136.732 159.804 135.823 160.29 134.579 159.864ZM128.198 159.317C127.982 159.634 127.407 160.012 127.126 159.928C126.181 159.641 125.733 158.825 125.425 157.853C126.277 157.455 127.005 157.115 127.719 156.78C128.425 157.513 128.68 158.609 128.198 159.317ZM143.028 146.032C143.879 147.244 144.18 148.445 143.925 149.749C143.763 150.587 143.192 151.131 142.359 151.298C140.891 151.592 139.678 150.993 138.444 150.11C139.993 148.73 141.465 147.422 143.028 146.032ZM153.436 153.303C153.665 153.228 153.978 153.028 154.029 152.83C154.737 150.032 158.644 147.966 162.164 149.155C162.409 149.237 162.643 149.349 163.027 149.506C159.558 154.426 155.443 158.514 150.571 161.856C148.707 159.061 150.342 154.302 153.436 153.303ZM151.116 137.477C152.02 138.555 152.508 139.636 152.458 140.9C152.414 142.052 151.584 142.908 150.432 142.999C149.221 143.097 148.111 142.766 146.974 142.061C148.362 140.526 149.698 139.047 151.116 137.477ZM162.822 111.977C161.649 111.844 160.455 112.531 159.888 113.733C159.545 114.461 159.27 115.23 159.042 116.004C157.419 121.509 154.998 126.637 151.831 131.422C147.444 138.05 142.027 143.712 135.671 148.457C131.257 151.751 126.608 154.673 121.354 156.487C119.55 157.109 117.727 157.675 115.919 158.286C114.89 158.635 113.953 159.133 113.341 160.093C112.645 161.187 112.773 162.569 113.645 163.242C114.341 163.777 115.505 163.527 115.452 162.801C115.355 161.449 116.285 161.207 117.173 160.771C117.942 160.395 118.295 160.69 118.798 161.28C120.156 162.884 121.457 164.608 123.086 165.9C128.482 170.179 134.782 171.794 141.559 171.246C149.732 170.586 156.604 166.993 162.551 161.37C164.084 159.383 165.741 157.475 167.127 155.389C172.125 147.867 173.76 139.693 171.431 130.887C170.053 125.673 167.306 121.307 162.95 118.018C162.472 117.655 161.527 117.58 161.688 116.712C161.805 116.077 162.137 115.451 162.504 114.909C162.687 114.64 163.154 114.456 163.507 114.429C164.322 114.363 164.696 113.893 164.421 113.115C164.157 112.362 163.554 112.061 162.822 111.977Z" fill="black"/>
<path d="M135.591 133.594C135.258 134.02 134.754 134.314 134.293 134.691C134.714 135.542 134.669 136.103 134.025 136.41C133.471 136.672 133.002 136.468 132.673 135.989C132.252 135.376 132.447 134.756 133.231 134.223C132.768 133.294 133.262 132.647 133.964 132.097C134.449 131.717 134.98 131.671 135.462 132.107C135.949 132.549 135.952 133.13 135.591 133.594ZM132.533 131.556C130.523 133.551 130.477 136.834 132.431 138.815C134.446 140.857 137.682 140.839 139.753 138.773C141.821 136.707 141.927 133.56 139.994 131.598C137.901 129.476 134.647 129.457 132.533 131.556Z" fill="black"/>
<path d="M163.026 149.506C159.557 154.426 155.443 158.513 150.572 161.856C148.707 159.061 150.342 154.302 153.435 153.302C153.666 153.227 153.978 153.028 154.028 152.831C154.737 150.032 158.645 147.967 162.164 149.155C162.408 149.238 162.643 149.349 163.026 149.506Z" fill="white"/>
<path d="M129.658 155.742C131.765 154.443 133.747 153.222 135.81 151.95C136.897 154.049 137.508 156.199 137.006 158.533C136.732 159.804 135.824 160.29 134.579 159.864C132.442 159.133 130.944 157.618 129.658 155.742Z" fill="white"/>
<path d="M146.513 164.111C145.371 164.699 144.248 165.329 143.079 165.857C142.531 166.105 142.043 166.014 141.951 165.198C141.792 163.803 141.512 162.423 141.345 161.029C141.295 160.615 141.409 160.164 141.522 159.751C141.86 158.518 142.551 158.292 143.551 159.069C145.009 160.202 146.451 161.353 147.92 162.47C148.357 162.803 148.425 163.114 147.969 163.414C147.596 163.661 147.16 163.815 146.752 164.011C146.672 164.044 146.593 164.077 146.513 164.111Z" fill="white"/>
<path d="M143.027 146.033C143.878 147.245 144.181 148.445 143.926 149.75C143.762 150.587 143.192 151.132 142.359 151.298C140.891 151.592 139.679 150.992 138.443 150.109C139.993 148.731 141.465 147.422 143.027 146.033Z" fill="white"/>
<path d="M134.293 134.691C134.715 135.541 134.669 136.103 134.025 136.409C133.471 136.672 133.001 136.468 132.673 135.99C132.252 135.377 132.447 134.757 133.23 134.223C132.767 133.293 133.262 132.647 133.964 132.098C134.45 131.718 134.981 131.671 135.461 132.107C135.949 132.548 135.953 133.13 135.591 133.593C135.257 134.02 134.753 134.314 134.293 134.691Z" fill="white"/>
<path d="M53.6112 132.178C54.737 132.178 55.2437 132.938 55.2436 134.298C55.2435 134.859 55.2072 135.484 55.1798 135.878C55.1644 136.098 54.9802 136.269 54.7585 136.269L54.6839 136.269C54.4369 136.269 54.2426 136.059 54.2632 135.812C54.2951 135.433 54.3335 134.884 54.3335 134.43C54.3336 133.548 54.0804 133.135 53.4987 133.135L53.2358 133.135C52.8138 133.135 52.5415 133.229 52.4663 133.886L52.3444 134.918C52.2507 135.744 51.6312 136.298 50.7963 136.297L50.2895 136.298C49.201 136.297 48.6943 135.519 48.6947 134.215C48.6947 133.775 48.7287 133.263 48.7621 132.874C48.7806 132.656 48.9635 132.488 49.1826 132.488L49.2405 132.488C49.4893 132.488 49.6841 132.702 49.6604 132.95C49.6262 133.309 49.5862 133.795 49.586 134.102C49.5861 134.975 49.8112 135.34 50.4116 135.34L50.6652 135.34C51.0402 135.34 51.3592 135.219 51.4344 134.609L51.5657 133.53C51.6597 132.732 52.2038 132.178 53.039 132.178L53.6112 132.178Z" fill="black"/>
<path d="M55.1971 125.68L49.7374 125.036C49.5058 125.008 49.3405 124.798 49.3676 124.567L49.3809 124.455C49.4084 124.223 49.6183 124.058 49.8497 124.085L55.3093 124.73C55.5412 124.757 55.7065 124.967 55.6791 125.199L55.6658 125.311C55.6384 125.542 55.4284 125.708 55.1971 125.68Z" fill="black"/>
<path d="M56.4163 118.095L51.0668 116.831C50.8399 116.777 50.6993 116.549 50.7531 116.323L50.7789 116.213C50.8327 115.986 51.0601 115.846 51.2868 115.899L55.7967 116.965C56.0236 117.019 56.251 116.878 56.3048 116.651L56.745 114.789C56.7987 114.562 57.0262 114.422 57.2531 114.475L57.2713 114.479C57.4983 114.533 57.6386 114.761 57.5848 114.988L56.9241 117.781C56.8707 118.008 56.6432 118.149 56.4163 118.095Z" fill="black"/>
<path d="M59.0622 108.707L53.9168 106.775C53.6987 106.693 53.5879 106.449 53.6701 106.231L53.7095 106.126C53.7916 105.908 54.035 105.797 54.2533 105.879L58.591 107.508C58.809 107.59 59.0527 107.479 59.1346 107.261L59.8074 105.47C59.8893 105.251 60.1327 105.141 60.3513 105.223L60.3688 105.23C60.5868 105.311 60.6974 105.555 60.6154 105.773L59.6058 108.46C59.5239 108.678 59.2805 108.789 59.0622 108.707Z" fill="black"/>
<path d="M59.0479 94.307L59.0956 94.216C59.2441 93.9324 59.6421 93.911 59.8205 94.177L61.8429 97.1986C61.8821 97.257 61.9353 97.305 61.9976 97.3376L63.6809 98.219C63.8875 98.327 63.9673 98.5821 63.859 98.7889L63.8068 98.8886C63.6986 99.0949 63.4435 99.1747 63.2369 99.0668L61.5538 98.1856C61.4913 98.1527 61.4216 98.1363 61.3512 98.1373L57.7155 98.1963C57.3952 98.2016 57.186 97.862 57.3347 97.5782L57.3822 97.4874C57.4555 97.3479 57.6 97.2608 57.7578 97.261L60.7365 97.2701L60.7798 97.1872L59.0758 94.7444C58.9855 94.6151 58.9746 94.4466 59.0479 94.307Z" fill="black"/>
<path d="M71.4039 82.8935L69.8137 79.5227C69.7428 79.3725 69.7668 79.1946 69.8748 79.0684L70.0506 78.8623C70.2021 78.6852 70.4687 78.6643 70.6458 78.8158L74.8229 82.3857C75.0003 82.5375 75.0211 82.804 74.8695 82.9811L74.7968 83.0664C74.6452 83.2435 74.3786 83.2644 74.2013 83.1132L71.2787 80.6152L71.2544 80.6436L72.389 83.1415C72.4566 83.291 72.4318 83.466 72.3254 83.5907L72.1748 83.7667C72.0684 83.8914 71.8994 83.9431 71.7413 83.8993L69.0971 83.1676L69.0729 83.196L71.9955 85.694C72.1726 85.8455 72.1934 86.1121 72.0419 86.2892L71.9691 86.3745C71.8175 86.5516 71.5512 86.5728 71.3736 86.4213L67.1968 82.8511C67.0194 82.6999 66.9986 82.4333 67.1501 82.2562L67.3259 82.0501C67.4339 81.9239 67.6061 81.8727 67.7657 81.9191L71.3429 82.965L71.4039 82.8935Z" fill="black"/>
<path d="M77.6222 74.2996L79.0091 75.89C79.7057 76.6888 80.3074 76.5372 80.9017 76.0192C81.4951 75.5014 81.7275 74.9257 81.0309 74.1269L79.6443 72.5362C78.9539 71.7446 78.3516 71.8962 77.7577 72.414C77.164 72.9321 76.9315 73.5078 77.6222 74.2996ZM80.2114 71.7307L81.9126 73.6818C82.8864 74.7986 82.4072 75.8761 81.4809 76.684C80.5546 77.4913 79.4221 77.8196 78.4482 76.7028L76.747 74.7517C75.7729 73.6346 76.2592 72.5511 77.1784 71.7498C78.0974 70.9481 79.2373 70.6137 80.2114 71.7307Z" fill="black"/>
<path d="M91.3674 69.0055L87.8221 67.3133C87.4384 67.13 87.0552 67.5648 87.285 67.9224L88.85 70.3587C88.976 70.555 88.9191 70.8159 88.7229 70.9421L88.6282 71.0029C88.4318 71.1289 88.171 71.0721 88.0448 70.8759L85.0749 66.2522C84.9489 66.0558 85.0058 65.7945 85.202 65.6688L85.4461 65.5117C85.5692 65.4329 85.7242 65.423 85.8559 65.4859L89.4152 67.1828C89.7989 67.3656 90.1818 66.931 89.9526 66.5734L88.3813 64.1278C88.2556 63.9316 88.3123 63.6705 88.5084 63.5443L88.6028 63.4838C88.7992 63.3578 89.0603 63.4143 89.1863 63.6107L92.1565 68.2342C92.2824 68.4306 92.2255 68.6919 92.0294 68.8177L91.7777 68.9797C91.6543 69.0587 91.4994 69.0686 91.3674 69.0055Z" fill="black"/>
<path d="M101.056 62.4841C101.524 63.5075 101.043 64.2843 99.8063 64.8499C99.2966 65.0826 98.7126 65.3098 98.3443 65.4481C98.1367 65.5258 97.9053 65.4296 97.8133 65.228L97.782 65.1602C97.6795 64.9356 97.7899 64.6714 98.0225 64.5879C98.3807 64.4593 98.8958 64.2655 99.3085 64.0771C100.11 63.7103 100.381 63.3083 100.139 62.7794L100.03 62.5405C99.8543 62.1568 99.6558 61.9484 99.0275 62.1533L98.0384 62.471C97.2486 62.7293 96.4877 62.3963 96.1412 61.6371L95.9305 61.1765C95.4783 60.1869 95.9757 59.4026 97.1618 58.8602C97.5611 58.6778 98.0411 58.4957 98.4086 58.364C98.6152 58.2899 98.8429 58.3866 98.9341 58.5864L98.9581 58.6386C99.0617 58.8652 98.9482 59.131 98.7126 59.2127C98.3725 59.3306 97.9137 59.4963 97.6343 59.6239C96.8409 59.9865 96.6019 60.3433 96.8515 60.8892L96.9568 61.1198C97.1128 61.4609 97.3558 61.7003 97.9417 61.5151L98.9775 61.1861C99.7417 60.9398 100.471 61.2042 100.818 61.9637L101.056 62.4841Z" fill="black"/>
<path d="M108.092 56.2174L109.452 60.6566C109.52 60.8796 109.395 61.1156 109.171 61.184L109.064 61.2168C108.841 61.2852 108.605 61.1598 108.537 60.937L107.177 56.4978C107.109 56.2746 106.873 56.1494 106.65 56.2178L105.798 56.4787C105.575 56.547 105.339 56.4218 105.271 56.1988L105.268 56.19C105.2 55.967 105.325 55.7309 105.548 55.6628L108.974 54.6129C109.197 54.5443 109.433 54.6698 109.501 54.8925L109.504 54.9016C109.572 55.1246 109.447 55.3607 109.224 55.429L108.372 55.69C108.149 55.7583 108.024 55.9946 108.092 56.2174Z" fill="black"/>
<path d="M116.898 58.8063L115.976 53.3869C115.936 53.1568 116.091 52.939 116.321 52.8996L119.225 52.4048C119.455 52.366 119.673 52.5203 119.712 52.7504L119.714 52.7595C119.753 52.9893 119.598 53.2074 119.368 53.2465L117.408 53.5806C117.178 53.6197 117.023 53.8378 117.062 54.0676L117.24 55.1127C117.279 55.3425 117.497 55.4971 117.727 55.458L119.253 55.198C119.483 55.1589 119.701 55.3136 119.74 55.5433C119.779 55.7731 119.625 55.9915 119.395 56.0303L117.869 56.2905C117.639 56.3294 117.484 56.5477 117.523 56.7773L117.697 57.7947C117.736 58.0245 117.954 58.1792 118.183 58.14L120.218 57.7935C120.448 57.7541 120.666 57.909 120.705 58.1385L120.708 58.1573C120.747 58.3871 120.593 58.6051 120.363 58.6443L117.385 59.1516C117.155 59.1907 116.937 59.0363 116.898 58.8063Z" fill="black"/>
<path d="M129.911 53.141C129.893 52.6162 129.659 52.3705 129.069 52.3909L128.019 52.4265C127.786 52.4344 127.604 52.6297 127.611 52.8629L127.65 53.9873C127.657 54.2205 127.853 54.4028 128.086 54.3947L129.135 54.3592C129.726 54.339 129.942 54.0784 129.924 53.5534L129.911 53.141ZM130.395 57.604L129.205 55.4421C129.128 55.3028 128.98 55.2183 128.821 55.2238L128.115 55.2479C127.882 55.256 127.699 55.4511 127.707 55.6843L127.768 57.5025C127.777 57.7354 127.594 57.9306 127.361 57.9387L127.249 57.9426C127.016 57.9507 126.82 57.7679 126.812 57.5349L126.627 52.0424C126.618 51.8095 126.801 51.6141 127.034 51.6063L128.983 51.5396C129.993 51.5054 130.839 52.2958 130.873 53.3055L130.888 53.7458C130.904 54.2309 130.699 54.6642 130.353 54.929C130.194 55.0508 130.162 55.2787 130.259 55.4535L131.225 57.1921C131.379 57.468 131.186 57.8084 130.87 57.8192L130.779 57.8223C130.62 57.8278 130.472 57.7433 130.395 57.604Z" fill="black"/>
<path d="M133.448 215.526C133.444 216.652 132.683 217.156 131.323 217.152C130.763 217.15 130.138 217.112 129.745 217.084C129.524 217.068 129.354 216.883 129.355 216.662L129.355 216.587C129.356 216.34 129.567 216.146 129.813 216.168C130.192 216.201 130.741 216.24 131.195 216.242C132.076 216.244 132.49 215.992 132.492 215.411L132.492 215.148C132.493 214.726 132.4 214.454 131.744 214.377L130.713 214.252C129.888 214.156 129.336 213.535 129.338 212.7L129.34 212.194C129.343 211.106 130.123 210.602 131.427 210.605C131.866 210.607 132.378 210.642 132.767 210.676C132.985 210.695 133.152 210.878 133.151 211.098L133.151 211.155C133.15 211.404 132.936 211.599 132.688 211.574C132.33 211.539 131.844 211.497 131.537 211.497C130.665 211.494 130.298 211.718 130.296 212.319L130.296 212.572C130.295 212.947 130.416 213.266 131.025 213.343L132.103 213.477C132.9 213.573 133.452 214.119 133.45 214.954L133.448 215.526Z" fill="black"/>
<path d="M140.997 216.089L140.34 210.631C140.312 210.399 140.477 210.189 140.708 210.161L140.82 210.147C141.052 210.12 141.262 210.285 141.29 210.516L141.947 215.974C141.975 216.206 141.81 216.416 141.578 216.443L141.467 216.457C141.235 216.485 141.025 216.32 140.997 216.089Z" fill="black"/>
<path d="M149.593 214.655L148.291 209.316C148.236 209.089 148.374 208.861 148.601 208.805L148.71 208.779C148.936 208.724 149.165 208.862 149.22 209.089L150.318 213.59C150.373 213.816 150.602 213.955 150.828 213.9L152.687 213.446C152.913 213.391 153.142 213.529 153.197 213.756L153.202 213.774C153.257 214.001 153.118 214.229 152.891 214.284L150.103 214.965C149.877 215.02 149.648 214.881 149.593 214.655Z" fill="black"/>
<path d="M160.06 211.575L158.062 206.454C157.977 206.237 158.084 205.992 158.302 205.908L158.406 205.866C158.623 205.782 158.868 205.889 158.953 206.106L160.638 210.423C160.723 210.64 160.967 210.748 161.185 210.663L162.968 209.967C163.185 209.882 163.43 209.99 163.514 210.207L163.521 210.224C163.606 210.442 163.499 210.686 163.281 210.771L160.607 211.815C160.39 211.9 160.145 211.793 160.06 211.575Z" fill="black"/>
<path d="M169.794 200.507L169.884 200.458C170.165 200.305 170.508 200.507 170.509 200.828L170.516 204.462C170.516 204.533 170.534 204.602 170.568 204.664L171.479 206.33C171.591 206.535 171.516 206.791 171.311 206.903L171.213 206.957C171.008 207.069 170.752 206.994 170.64 206.789L169.728 205.123C169.695 205.061 169.646 205.009 169.586 204.971L166.53 203.004C166.26 202.831 166.275 202.433 166.556 202.279L166.646 202.23C166.784 202.154 166.953 202.162 167.083 202.25L169.556 203.909L169.638 203.864L169.575 200.887C169.571 200.729 169.656 200.583 169.794 200.507Z" fill="black"/>
<path d="M185.231 193.716L184.088 190.169C184.037 190.011 184.083 189.837 184.207 189.726L184.408 189.545C184.581 189.388 184.848 189.402 185.004 189.574L188.688 193.652C188.844 193.825 188.83 194.092 188.657 194.248L188.574 194.324C188.401 194.48 188.134 194.467 187.978 194.294L185.401 191.441L185.373 191.466L186.176 194.089C186.225 194.246 186.177 194.416 186.056 194.526L185.884 194.681C185.762 194.791 185.588 194.821 185.437 194.757L182.909 193.691L182.881 193.717L185.458 196.57C185.615 196.743 185.601 197.01 185.428 197.166L185.345 197.241C185.171 197.398 184.905 197.384 184.748 197.211L181.065 193.133C180.908 192.96 180.922 192.693 181.095 192.537L181.296 192.356C181.419 192.244 181.596 192.215 181.749 192.282L185.162 193.779L185.231 193.716Z" fill="black"/>
<path d="M191.68 184.851L193.316 186.184C194.137 186.853 194.705 186.602 195.203 185.991C195.701 185.38 195.833 184.774 195.011 184.104L193.375 182.771C192.56 182.107 191.992 182.358 191.495 182.969C190.997 183.58 190.865 184.187 191.68 184.851ZM193.798 181.88L195.804 183.516C196.953 184.452 196.663 185.596 195.887 186.548C195.11 187.501 194.049 188.016 192.901 187.08L190.893 185.444C189.744 184.508 190.041 183.358 190.811 182.412C191.582 181.466 192.649 180.944 193.798 181.88Z" fill="black"/>
<path d="M203.512 174.867L199.584 174.96C199.159 174.97 199.013 175.531 199.38 175.746L201.877 177.212C202.078 177.329 202.146 177.588 202.027 177.789L201.971 177.886C201.853 178.087 201.594 178.155 201.393 178.037L196.654 175.255C196.453 175.137 196.386 174.878 196.504 174.677L196.65 174.427C196.725 174.301 196.858 174.222 197.004 174.219L200.947 174.123C201.371 174.113 201.517 173.552 201.15 173.337L198.644 171.866C198.443 171.748 198.375 171.49 198.493 171.288L198.55 171.191C198.668 170.991 198.927 170.923 199.128 171.041L203.867 173.823C204.068 173.941 204.135 174.2 204.017 174.4L203.865 174.659C203.792 174.785 203.658 174.864 203.512 174.867Z" fill="black"/>
<path d="M207.732 162.697C208.777 163.117 208.963 164.011 208.454 165.273C208.245 165.792 207.978 166.359 207.805 166.713C207.708 166.912 207.474 167.002 207.268 166.919L207.2 166.891C206.97 166.799 206.869 166.531 206.98 166.31C207.151 165.97 207.392 165.475 207.561 165.055C207.891 164.237 207.81 163.759 207.271 163.542L207.027 163.444C206.635 163.287 206.348 163.272 206.033 163.853L205.535 164.765C205.139 165.495 204.358 165.777 203.584 165.466L203.114 165.277C202.105 164.87 201.926 163.959 202.413 162.749C202.577 162.342 202.8 161.88 202.976 161.531C203.075 161.335 203.307 161.249 203.51 161.33L203.564 161.352C203.794 161.445 203.895 161.716 203.781 161.937C203.615 162.257 203.396 162.693 203.281 162.978C202.955 163.787 203.028 164.21 203.584 164.435L203.819 164.529C204.167 164.669 204.509 164.675 204.806 164.138L205.331 163.186C205.716 162.482 206.427 162.171 207.202 162.483L207.732 162.697Z" fill="black"/>
<path d="M207.056 152.788L211.56 153.918C211.786 153.975 211.924 154.204 211.866 154.43L211.839 154.539C211.782 154.765 211.553 154.903 211.327 154.846L206.823 153.716C206.596 153.66 206.367 153.797 206.31 154.023L206.093 154.888C206.037 155.114 205.808 155.251 205.581 155.195L205.572 155.192C205.346 155.135 205.209 154.906 205.266 154.68L206.138 151.204C206.195 150.978 206.424 150.84 206.65 150.897L206.66 150.899C206.885 150.956 207.023 151.185 206.966 151.412L206.749 152.276C206.693 152.502 206.83 152.732 207.056 152.788Z" fill="black"/>
<path d="M213.215 145.24L207.752 144.627C207.52 144.6 207.353 144.392 207.379 144.16L207.709 141.232C207.735 141.001 207.943 140.834 208.175 140.86L208.184 140.861C208.416 140.887 208.583 141.096 208.557 141.328L208.335 143.304C208.309 143.536 208.475 143.745 208.707 143.771L209.761 143.889C209.992 143.915 210.201 143.749 210.227 143.517L210.4 141.978C210.426 141.747 210.635 141.58 210.867 141.606C211.098 141.632 211.266 141.841 211.239 142.072L211.066 143.611C211.04 143.843 211.207 144.052 211.439 144.078L212.464 144.193C212.696 144.219 212.905 144.052 212.931 143.82L213.162 141.769C213.188 141.538 213.397 141.371 213.628 141.397L213.647 141.399C213.879 141.425 214.045 141.634 214.019 141.866L213.682 144.868C213.655 145.099 213.447 145.266 213.215 145.24Z" fill="black"/>
<path d="M209.578 130.931C209.052 130.946 208.805 131.178 208.822 131.769L208.852 132.819C208.859 133.052 209.053 133.236 209.286 133.229L210.411 133.197C210.645 133.19 210.828 132.996 210.821 132.763L210.792 131.713C210.775 131.122 210.515 130.904 209.99 130.919L209.578 130.931ZM214.044 130.47L211.875 131.649C211.735 131.724 211.65 131.873 211.654 132.032L211.675 132.738C211.681 132.971 211.875 133.155 212.109 133.148L213.927 133.096C214.161 133.089 214.355 133.273 214.362 133.506L214.365 133.618C214.372 133.852 214.188 134.046 213.955 134.052L208.46 134.21C208.227 134.216 208.033 134.033 208.026 133.8L207.971 131.85C207.942 130.84 208.737 129.998 209.747 129.969L210.188 129.956C210.673 129.942 211.105 130.15 211.368 130.498C211.489 130.657 211.717 130.691 211.892 130.594L213.637 129.637C213.913 129.485 214.252 129.68 214.262 129.995L214.264 130.087C214.269 130.246 214.184 130.394 214.044 130.47Z" fill="black"/>
<path d="M72.4243 186.82L73.471 187.353C73.7268 187.484 74.0372 187.434 74.2404 187.231L75.0712 186.4C75.5251 185.947 76.2945 186.339 76.1941 186.973L76.0103 188.133C75.9652 188.417 76.1081 188.697 76.3637 188.827L77.4103 189.36C77.9823 189.652 77.8474 190.505 77.2133 190.605L76.0529 190.789C75.7693 190.834 75.5468 191.056 75.5022 191.34L75.3182 192.5C75.2177 193.135 74.3646 193.269 74.0733 192.697L73.54 191.651C73.4096 191.395 73.1295 191.252 72.8459 191.297L71.6858 191.481C71.0517 191.582 70.6594 190.812 71.1136 190.358L71.9441 189.528C72.1473 189.324 72.1964 189.014 72.0663 188.758L71.533 187.711C71.2417 187.139 71.8523 186.529 72.4243 186.82Z" fill="black"/>
<path d="M185.012 74.2322L186.059 74.7655C186.315 74.8957 186.625 74.8466 186.828 74.6434L187.659 73.8126C188.113 73.3587 188.882 73.7509 188.782 74.385L188.598 75.5452C188.553 75.8287 188.696 76.1088 188.952 76.2392L189.998 76.7725C190.57 77.0638 190.435 77.917 189.801 78.0175L188.641 78.2015C188.357 78.2461 188.135 78.4686 188.09 78.7521L187.906 79.9126C187.806 80.5466 186.952 80.6816 186.661 80.1096L186.128 79.0629C185.997 78.8073 185.717 78.6644 185.434 78.7096L184.274 78.8933C183.64 78.9938 183.247 78.2244 183.701 77.7702L184.532 76.9394C184.735 76.7365 184.784 76.4261 184.654 76.1702L184.121 75.1236C183.83 74.5516 184.44 73.9409 185.012 74.2322Z" fill="black"/>
</svg>
